<?xml version="1.0" encoding="UTF-8" standalone="no"?>
<svg xmlns:rdf="http://www.w3.org/1999/02/22-rdf-syntax-ns#" xmlns="http://www.w3.org/2000/svg" xml:space="preserve" height="300" width="600" version="1.1" y="0px" x="0px" xmlns:cc="http://creativecommons.org/ns#" xmlns:dc="http://purl.org/dc/elements/1.1/" viewBox="0 0 600.00201 300.00201"><g transform="translate(0 -760)"><path d="m8.044 760h23.405c-5.595 20.326-6.945 41.676-5.129 62.633 1.631 18.686 5.754 37.115 11.761 54.871 8.68 25.664 21.261 49.922 36.487 72.297 16.711 24.506 36.639 46.768 58.823 66.438 18.554 16.465 38.729 31.08 60.046 43.762h-43.861c-1.533-1.209-3.141-2.322-4.7-3.496-34.2-25.6-64.55-56.55-88.732-91.83-14.224-20.78-26.297-43.08-35.441-66.55-6.078-15.62-10.857-31.77-14.002-48.23-3.381-17.73-4.877-35.84-3.969-53.87 0.643-12.13 2.294-24.24 5.308-36.02z"/><path d="m53.179 760h19.624c-4.164 11.99-6.356 24.625-6.911 37.293-0.801 18.248 1.712 36.547 6.519 54.139 7.316 26.66 19.808 51.729 35.449 74.459 16.72 24.273 37.095 45.951 59.822 64.684 35.133 28.938 75.949 50.869 119.32 64.613 5.451 1.742 10.961 3.287 16.476 4.813h-61.321c-4.387-2-8.766-4.016-13.082-6.162-27.079-13.342-52.566-29.932-75.648-49.391-22.2-18.725-42.18-40.137-58.92-63.891-16.115-22.9-29.24-48.03-37.739-74.75-5.424-17.09-8.922-34.84-9.789-52.77-0.857-17.85 0.92-35.92 6.197-53.04z"/><path d="m91.284 760h16.913c-3.629 7.537-6.034 15.633-7.506 23.855-3.107 17.588-1.738 35.732 2.368 53.039 3.776 15.813 9.858 31.027 17.501 45.359 8.898 16.674 19.916 32.182 32.376 46.379 18.86 21.469 41.016 39.961 65.159 55.211 25.877 16.328 54.076 28.949 83.459 37.479 47.133 13.746 97.401 16.803 145.8 8.43 31.813-5.459 62.768-15.832 91.508-30.518 21.761-11.098 42.271-24.629 61.136-40.139v20.768c-11.164 8.805-22.867 16.93-35.025 24.303-26.742 16.236-55.762 28.742-85.988 36.848-38.33 10.328-78.539 13.537-118.04 9.65-56.408-5.48-111.36-25.262-158.33-56.98-23.316-15.76-44.681-34.477-63.003-55.855-13.08-15.28-24.6-31.92-33.87-49.78-7.121-13.72-12.915-28.16-16.866-43.12-4.741-17.97-6.838-36.78-4.851-55.31 1.104-10.13 3.418-20.16 7.241-29.62z"/><path d="m124.5 760h15.393c-4.646 6.238-7.958 13.42-10.082 20.887-2.451 8.545-3.324 17.49-3.08 26.359 0.504 16.188 4.713 32.088 11.011 46.947 7.923 18.594 19.142 35.67 32.262 51 18.65 21.729 41.161 40.01 65.741 54.637 26.951 16.023 56.467 27.676 87.033 34.625 27.527 6.26 55.923 8.709 84.111 7.174 35.074-1.861 69.798-9.924 102.15-23.586 28.015-11.795 54.23-27.736 77.871-46.818 4.449-3.605 8.854-7.277 13.096-11.127v18.865c-7.279 6.25-14.834 12.182-22.615 17.793-24.793 17.906-52.063 32.426-80.887 42.676-34.379 12.271-70.936 18.422-107.44 18.049-58.609-0.486-117.03-17.656-166.42-49.242-24.371-15.598-46.581-34.719-64.977-57.094-13.337-16.258-24.673-34.27-32.672-53.752-6.298-15.41-10.513-31.793-11.257-48.469-0.396-9.32 0.292-18.721 2.465-27.807 1.757-7.379 4.477-14.556 8.3-21.117z"/><path d="m155.76 760h17.402c-5.965 3.383-11.117 8.188-14.832 13.955-4.291 6.557-6.783 14.17-7.851 21.898-1.303 9.492-0.522 19.172 1.508 28.506 2.692 12.16 7.513 23.781 13.586 34.627 7.849 13.969 17.767 26.721 28.95 38.172 10.2 10.473 21.475 19.877 33.463 28.232 25.283 17.592 53.717 30.521 83.41 38.621 29.969 8.174 61.27 11.406 92.279 9.588 20.399-1.182 40.67-4.535 60.369-9.967 29.84-8.205 58.328-21.172 84.31-37.967 18.517-11.928 35.769-25.783 51.642-41.045v17.182c-1.729 1.5-3.376 3.088-5.098 4.594-11.07 9.879-22.77 19.059-35.029 27.414-25.769 17.57-54.114 31.422-83.955 40.549-17.269 5.297-35.02 9.029-52.965 11.104-25.025 2.902-50.423 2.594-75.368-0.92-32.357-4.557-63.981-14.473-93.031-29.459-25.078-12.955-48.302-29.688-67.888-50.061-11.129-11.615-21.076-24.412-29.127-38.354-7.25-12.578-12.992-26.113-16.142-40.314-1.651-7.496-2.574-15.174-2.446-22.855 0.11-8.738 1.615-17.52 4.93-25.631 2.711-6.672 6.73-12.824 11.883-17.869z"/><path d="m222.85 760h14.422c11.867 7.58 22.305 17.295 31.051 28.311 12.351 15.541 21.429 33.604 26.956 52.65 3.878-0.6 7.726-1.385 11.585-2.096 16.594-3.135 33.064-6.977 49.22-11.904 27.88-8.441 54.792-19.949 80.413-33.783 18.536-9.994 36.426-21.166 53.721-33.178h6.205c-6.039 4.348-12.205 8.518-18.422 12.609-16.358 10.713-33.287 20.578-50.811 29.268-26.848 13.342-55.138 23.867-84.332 30.748-17.502 4.191-35.313 6.955-53.166 9.129-6.096-20.553-16.522-39.941-31.05-55.771-10.04-10.91-22.1-20.16-35.79-25.98z"/><path d="m249.48 760h10.727c19.922 18.412 34.844 41.977 43.92 67.486 1.16 3.352 2.33 6.709 3.227 10.143-0.422 0.139-0.834 0.287-1.262 0.396 0.07 0.109 1.012-0.057 1.09 0.055-1.656 0.418-4.168 1.074-5.834 1.398-4.899-16.947-12.445-33.145-22.441-47.689-8.2-11.95-18.09-22.76-29.43-31.79z"/><path d="m271.02 760h10.275c4.43 5.236 8.657 10.645 12.53 16.305 8.832 12.838 16.116 26.73 21.7 41.273 1.88 4.838 3.495 9.773 5.035 14.73-1.456 0.588-2.888 1.234-4.338 1.842-0.467 0.207-0.975 0.367-1.333 0.742 1.571-0.375 3.031-1.104 4.558-1.625 14.621-5.557 29.159-11.346 43.469-17.666 25.363-11.168 50.01-23.949 73.857-38.064 9.561-5.65 19.003-11.504 28.326-17.537h5.836c-2.977 2.021-6.031 3.928-9.061 5.871-9.068 5.756-18.254 11.33-27.576 16.67-24.395 14.01-49.725 26.408-75.855 36.838-14.772 5.938-29.811 11.193-44.916 16.205 0.157-0.127 0.319-0.248 0.49-0.365-0.815-2.459-1.514-4.957-2.371-7.402-8.5-25.16-22.3-48.58-40.64-67.82z"/><path d="m291.92 760h10.442c13.601 18.805 24.213 39.758 31.418 61.814 0.212 0.664 0.4 1.338 0.683 1.977 24.247-16.365 48.495-32.732 72.909-48.852 7.54-5.004 15.107-9.965 22.668-14.939h5.268c-3.87 2.553-7.796 5.021-11.688 7.545-23.859 15.322-47.821 30.482-71.865 45.514-6.049 3.764-12.061 7.584-18.142 11.289-1.379 0.963-1.679 1.109-3.024 2.115-0.385 0.451-0.603 0.602-0.805 0.797-0.775 0.352-1.537 0.73-2.283 1.131-3.166-10.463-7.197-20.662-11.948-30.506-6.517-13.412-14.394-26.18-23.633-37.885z"/><path d="m313.36 760h10.908c10.008 16.096 18.222 33.297 24.471 51.186-0.605 0.533-1.143 1.133-1.51 1.852-1.867 1.6-3.682 3.264-5.596 4.805-6.805-20.421-16.299-39.95-28.273-57.843z"/><path d="m335.77 760h11.559c5.569 10.205 10.531 20.744 14.846 31.539 0.242 0.645 0.484 1.291 0.805 1.902 1.861-2.557 3.578-5.221 5.403-7.807 6.001-8.717 12.151-17.34 18.729-25.635h2.604c-8.578 9.729-16.544 19.973-24.305 30.361-2.227 2.982-4.494 5.934-6.648 8.969 0.144-0.018 0.426-0.057 0.569-0.076-1.174 1.182-2.206 2.488-3.299 3.738-5.52-14.87-12.23-29.3-20.26-42.99z"/><path d="m359.56 760h12.258c1.229 2.375 2.303 4.824 3.441 7.242 0.123 0.367 0.441 0.746 0.266 1.146-0.372 0.986-0.764 1.967-1.184 2.934-0.431 0.971-1.014 1.951-1.021 3.041-1.188 2.418-2.436 4.809-3.656 7.213-0.806-1.59-1.406-3.273-2.157-4.891-2.483-5.638-5.151-11.195-7.947-16.685z"/><path d="m382.71 760h1.788c-5.004 7.111-9.738 14.412-14.365 21.775-0.689 1.049-1.298 2.154-2.063 3.152 4.792-8.357 9.484-16.784 14.64-24.927z"/><path d="m393.14 760h3.347c-11.86 11.121-22.919 23.061-33.653 35.262-1.176 1.238-2.174 2.65-3.457 3.783 0.596-0.973 1.406-1.793 2.101-2.693 10.09-12.5 20.42-24.84 31.66-36.35z"/><path d="m400.64 760h4.051c-15.662 12.564-30.421 26.207-44.785 40.225-2.477 2.395-4.913 4.832-7.428 7.186 5.922-6.32 11.896-12.594 17.943-18.795 9.701-9.923 19.732-19.526 30.219-28.616z"/><path d="m409.45 760h4.609c-21.662 15.568-42.402 32.379-62.732 49.641-1.189 0.945-2.27 2.029-3.523 2.891 0.912-0.973 1.965-1.803 2.924-2.73 7.884-7.189 15.794-14.35 23.854-21.342 11.308-9.862 22.937-19.358 34.868-28.46z"/><path d="m419.36 760h5.021c-1.049 0.645-2.042 1.375-3.076 2.047-23.703 15.963-47.039 32.471-70.128 49.309-2.897 2.057-5.706 4.244-8.647 6.236 0.699-0.766 1.601-1.307 2.387-1.977 13.229-10.434 26.525-20.783 40.035-30.852 11.324-8.45 22.795-16.708 34.408-24.763z"/><path d="m441.3 760h5.586c-11.229 7.084-22.497 14.104-33.894 20.918-25.433 15.285-51.409 29.654-77.69 43.428-1.607 0.809-3.15 1.766-4.814 2.447 0.611-0.523 1.359-0.84 2.042-1.258 13.332-7.637 26.636-15.324 39.86-23.145 23.213-13.728 46.2-27.847 68.91-42.39z"/><path d="m452.98 760h5.747c-27.205 17.443-55.288 33.545-84.289 47.814-14.398 7.123-29.033 13.766-43.772 20.148-3.157 1.342-6.28 2.766-9.465 4.035 0.185-0.109 0.378-0.215 0.579-0.309 13.995-6.611 27.93-13.346 41.719-20.375 25.691-13.072 50.813-27.26 75.332-42.412 4.732-2.94 9.489-5.85 14.149-8.901z"/><path d="m477.48 760h6.016c-6.941 4.779-14.029 9.344-21.172 13.814-9.189 5.719-18.526 11.205-28.027 16.396-24.656 13.496-50.429 24.994-77.092 33.924-16.052 5.396-32.411 9.852-48.898 13.711-0.6 0.148-1.201 0.326-1.822 0.303 13.918-3.906 27.793-8.016 41.455-12.752 27.252-9.361 53.674-21.098 78.998-34.836 17.32-9.374 34.16-19.63 50.542-30.56z"/><path d="m503.31 760h6.422c-9.396 7.109-19.055 13.867-28.918 20.313-16.666 10.857-34.006 20.705-52.014 29.166-26.545 12.5-54.587 21.941-83.451 27.326-17.678 3.322-35.633 5.07-53.605 5.531-2.344 0.066-4.697 0.229-7.039 0.061 2.355-0.051 4.699-0.291 7.049-0.449 5.251-0.424 10.498-0.865 15.732-1.445 17.477-1.852 34.83-4.916 51.845-9.33 15.059-3.898 29.849-8.811 44.276-14.617 19.875-7.988 39.051-17.664 57.471-28.586 14.528-8.618 28.596-18.005 42.232-27.97z"/><path d="m516.82 760h6.729c-5.438 4.279-10.889 8.549-16.477 12.635-13.082 9.641-26.645 18.637-40.704 26.789-18.092 10.479-37.009 19.574-56.638 26.789-15.166 5.582-30.748 10.041-46.598 13.199-18.813 3.74-37.998 5.621-57.179 5.438-12.265-0.096-24.505-1.096-36.673-2.578-4.599-13.678-11.644-26.625-21.239-37.445-5.158-5.775-11.066-10.936-17.751-14.875-6.482-3.801-13.826-6.525-21.418-6.539-5.67-0.035-11.49 1.795-15.672 5.725-4.434 4.037-6.763 9.93-7.42 15.799-0.76 6.75 0.348 13.576 2.341 20.027 2.635 8.414 6.794 16.285 11.719 23.572 7.915 11.643 17.804 21.852 28.665 30.77 11.786 9.662 24.774 17.814 38.422 24.58 29.959 14.799 63.063 22.904 96.386 24.635 26.354 1.365 52.892-1.262 78.499-7.604 32.164-7.91 62.788-21.676 90.471-39.807 24.301-15.891 46.359-35.088 66.016-56.43 0.566-0.609 1.141-1.213 1.699-1.834v14.107c-16.682 17.842-35.088 34.111-55.107 48.125-24.549 17.225-51.574 30.996-80.129 40.221-19.853 6.422-40.419 10.658-61.206 12.484-33.438 2.965-67.464-0.311-99.618-10.004-16.035-4.844-31.607-11.264-46.294-19.322-12.701-6.969-24.756-15.154-35.735-24.615-11.453-9.9-21.811-21.189-29.927-34.002-4.907-7.789-9.006-16.148-11.554-25.016-2.16-7.521-3.186-15.492-2.033-23.277 0.9-6.084 3.365-12.068 7.669-16.539 3.55-3.748 8.313-6.262 13.354-7.305 5.749-1.227 11.763-0.725 17.406 0.801 7.027 1.916 13.567 5.35 19.478 9.568 6.236 4.471 11.801 9.838 16.688 15.744 9.44 11.428 16.402 24.797 20.939 38.881 4.752 0.25 9.505 0.457 14.262 0.582 18.375 0.508 36.804-0.508 54.977-3.303 29.658-4.512 58.545-13.559 85.824-25.984 31.377-14.258 60.627-32.894 87.828-53.992z"/><path d="m545.35 760h7.271c-21.403 19.834-44.563 37.867-69.617 52.877-17.156 10.283-35.189 19.135-53.933 26.135-29.89 11.17-61.681 17.598-93.636 17.648-18.27 0.014-36.578-2.033-54.285-6.59-12.528-3.25-24.78-7.734-36.203-13.848-1.51-3.283-3.377-6.396-5.436-9.363-2.803-3.932-6.057-7.66-10.138-10.303-1.775-1.08-3.752-2.078-5.882-2.035-1.26 0.004-2.533 0.678-3.098 1.828-0.725 1.473-0.578 3.197-0.253 4.756 0.812 3.395 2.572 6.475 4.53 9.334 3.999 5.715 9.06 10.604 14.432 15.018 11.472 9.268 24.607 16.307 38.271 21.762 16.131 6.395 33.121 10.523 50.323 12.705 33.109 4.166 66.973 1.059 99.055-7.955 19.229-5.387 37.846-12.885 55.557-22.098 25.965-13.484 49.928-30.654 71.687-50.18 13.78-12.375 26.714-25.684 38.827-39.691h7.176v1.453c-22.145 26.607-47.197 50.939-75.414 71.068-26.629 19.021-56.109 34.221-87.438 43.813-32.059 9.859-66.04 13.824-99.466 10.576-17.287-1.68-34.417-5.271-50.821-11.004-14.154-4.961-27.81-11.504-40.191-20.006-6.109-4.213-11.908-8.908-17.09-14.23-4.76-4.941-9.142-10.398-11.975-16.693-1.306-3.004-2.328-6.287-1.915-9.598 0.229-1.893 1.313-3.781 3.132-4.533 2.252-0.947 4.797-0.385 6.986 0.471 4.428 1.84 8.075 5.104 11.293 8.586 4.646 5.178 8.295 11.191 11.184 17.502 0.104 0.277 0.398 0.369 0.646 0.482 2.984 1.17 5.973 2.326 8.993 3.398 16.13 5.746 33.014 9.311 50.056 10.883 19.229 1.803 38.66 1.115 57.767-1.629 15.732-2.262 31.248-5.943 46.366-10.83 20.744-6.705 40.725-15.684 59.703-26.391 26.436-14.908 50.909-33.13 73.536-53.318z"/><path d="m560.5 760h7.564c-0.717 0.764-1.455 1.504-2.201 2.236-10.205 10.135-20.843 19.836-31.973 28.951-24.219 19.863-50.809 36.98-79.454 49.738-24.132 10.76-49.71 18.396-75.905 21.996-19.386 2.668-39.1 3.127-58.564 1.018-16.67-1.818-33.178-5.506-48.854-11.502-7.858-3.033-15.513-6.633-22.706-11.025-5.645-3.496-11.146-7.379-15.635-12.313-0.799-0.982-1.764-1.947-2.043-3.227 1.121 0.297 1.808 1.355 2.546 2.176 0.868 0.953 1.401 2.203 2.474 2.967 6.311 5.1 13.4 9.16 20.703 12.656 14.283 6.762 29.59 11.207 45.129 13.949 19.383 3.385 39.201 4.059 58.796 2.42 29.396-2.438 58.26-10.064 85.374-21.6 16.464-6.984 32.3-15.414 47.42-24.959 24.29-15.329 46.68-33.545 67.329-53.481z"/><path d="m576.3 760h7.992c-17.996 19.744-37.57 38.115-58.969 54.141-26.248 19.686-55.268 35.861-86.307 46.631-30.642 10.678-63.246 16.057-95.71 14.699-17.919-0.748-35.784-3.541-52.976-8.684-14.219-4.271-28.021-10.143-40.576-18.105-6.039-3.873-11.8-8.229-16.855-13.332-2.662-2.754-5.188-5.693-7.079-9.039-0.762-1.398-1.459-2.865-1.722-4.447-0.113-0.889-0.172-1.938 0.491-2.639 0.552-0.596 1.448-0.609 2.19-0.457 1.378 0.314 2.604 1.072 3.735 1.898 1.698 1.281 3.204 2.795 4.578 4.414 2.327 2.781 4.368 5.816 6.032 9.041-1.277-0.744-2.9-1.246-3.563-2.686-1.662-2.686-3.559-5.266-5.916-7.387-0.84-0.715-1.744-1.416-2.813-1.732-0.459-0.16-1.089-0.049-1.284 0.445-0.315 0.74 0.034 1.541 0.291 2.242 0.901 2.084 2.313 3.898 3.779 5.615 1.964 2.225 4.108 4.287 6.372 6.205 5.768 4.867 12.166 8.943 18.805 12.516 13.984 7.441 29.11 12.596 44.555 16.006 17.936 3.928 36.363 5.473 54.707 4.939 16.914-0.479 33.768-2.744 50.256-6.547 22.076-5.102 43.485-12.98 63.761-23.078 14.239-7.07 27.927-15.236 41.011-24.266 23.709-16.354 45.391-35.53 65.215-56.393z"/><path d="m195.92 762.65c5.979-0.533 12.016 0.193 17.813 1.676 7.807 2.057 15.188 5.545 21.953 9.926 11.195 7.271 20.746 16.896 28.562 27.682 8.875 12.264 15.509 26.092 19.893 40.566-1.716 0.025-3.432 0.117-5.147 0.072-3.901-12.666-9.721-24.758-17.323-35.621-8.118-11.527-18.335-21.766-30.596-28.85-7.157-4.104-15.048-7.121-23.286-8.01-6.697-0.725-13.668 0.045-19.796 2.953-5.593 2.596-10.294 6.994-13.38 12.32-3.951 6.746-5.46 14.689-5.346 22.443 0.086 7.426 1.573 14.785 3.86 21.832 3.356 10.227 8.411 19.836 14.425 28.74 4.209 6.24 8.915 12.139 13.969 17.715 9.705 10.68 20.693 20.156 32.479 28.469 12.495 8.814 25.897 16.32 39.854 22.559 30.4 13.551 63.423 21.053 96.654 22.473 24.777 1.061 49.693-1.24 73.869-6.771 31.344-7.133 61.391-19.682 88.764-36.5 24.508-15.045 46.928-33.418 66.861-54.119v15.658c-2.32 2.289-4.656 4.563-7.018 6.807-21.586 20.471-45.764 38.281-72.053 52.25-30.385 16.195-63.592 27.17-97.723 31.828-30.203 4.156-61.086 3.406-91.034-2.328-31.294-5.984-61.616-17.377-88.794-34.053-12.559-7.73-24.44-16.584-35.271-26.6-10.855-10.045-20.685-21.258-28.792-33.645-6.279-9.613-11.525-19.955-15.019-30.908-2.492-7.869-4.078-16.072-4.157-24.344-0.101-8.674 1.536-17.527 5.755-25.178 3.041-5.564 7.513-10.367 12.952-13.648 5.153-3.132 11.074-4.911 17.072-5.394z"/><path d="m539.73 831.16c22.155-17.27 42.21-37.154 60.271-58.65v11.346c-2.793 3.191-5.557 6.41-8.412 9.545-19.508 21.598-41.281 41.23-65.311 57.693-27.428 18.83-57.855 33.449-90.008 42.145-28.982 7.863-59.326 10.908-89.271 8.385-17.28-1.449-34.425-4.738-50.952-10-14.715-4.688-28.959-10.932-42.186-18.916-11.619-7.051-22.523-15.432-31.678-25.516-4.896-5.445-9.309-11.385-12.585-17.953-2.07-4.205-3.704-8.693-4.209-13.377-0.308-3.314-0.079-6.822 1.556-9.793 1.154-2.109 3.066-3.799 5.346-4.596 2.547-0.938 5.35-0.9 7.975-0.344 3.785 0.791 7.29 2.564 10.502 4.674 5.784 3.912 10.643 9.064 14.741 14.689 4.313 5.986 7.851 12.537 10.513 19.418-1.254-0.291-2.52-0.607-3.713-1.09-2.471-5.645-5.371-11.131-9.003-16.121-3.854-5.316-8.45-10.211-14.048-13.709-3.202-1.943-6.832-3.512-10.646-3.432-2.397 0.072-4.865 1.098-6.275 3.1-1.658 2.283-1.985 5.246-1.749 7.986 0.437 4.504 2.181 8.766 4.302 12.721 3.135 5.746 7.235 10.912 11.726 15.652 5.181 5.426 10.935 10.285 17.015 14.674 11.928 8.578 25.086 15.363 38.767 20.676 15.914 6.156 32.582 10.291 49.481 12.586 18.315 2.488 36.908 2.799 55.313 1.133 23.857-2.166 47.381-7.701 69.813-16.08 29.82-11.131 57.656-27.279 82.725-46.846z"/><path d="m200.58 792.96c3.047-2.193 6.817-3.182 10.537-3.273 4.065-0.068 8.097 0.867 11.875 2.322 6.856 2.693 12.924 7.088 18.229 12.145 5.531 5.332 10.25 11.469 14.207 18.043 3.674 6.166 6.779 12.688 9.096 19.482-0.171-0.012-0.515-0.031-0.685-0.041-0.57-0.34-1.241-0.348-1.808-0.004-0.609-0.154-1.211-0.32-1.816-0.484 0.096-0.623-0.205-1.191-0.419-1.752-3.97-10.135-9.479-19.74-16.753-27.873-4.896-5.41-10.584-10.24-17.218-13.375-3.655-1.725-7.64-2.881-11.702-2.908-2.741 0.025-5.527 0.621-7.897 2.039-2.543 1.488-4.487 3.891-5.595 6.604-1.068 2.543-1.446 5.318-1.479 8.059 0.053 5.174 1.387 10.254 3.315 15.029 2.775 6.83 6.754 13.113 11.274 18.914 8.512 10.832 18.974 20.016 30.266 27.855 12.404 8.57 25.885 15.533 39.916 21.029 14.916 5.842 30.464 10.021 46.258 12.648 18.811 3.107 37.977 4.037 57 2.811 23.138-1.451 46.059-6.031 68.05-13.352 29.302-9.736 56.899-24.344 81.873-42.461 23.2-16.78 44.13-36.56 62.9-58.14v12.707c-15.205 17.09-31.785 32.99-49.854 47.033-24.079 18.768-50.786 34.266-79.333 45.154-17.61 6.736-35.902 11.707-54.516 14.723-33.037 5.369-67.144 4.5-99.756-3.154-15.154-3.557-29.979-8.572-44.107-15.115-13.203-6.117-25.814-13.568-37.341-22.469-11.139-8.637-21.333-18.637-29.385-30.248-4.847-7.068-8.946-14.752-11.246-23.041-1.579-5.813-2.308-12.025-0.907-17.951 1.001-4.303 3.355-8.41 7.029-10.967z"/><path d="m0 917.02c1.59 3.621 3.148 7.26 4.826 10.842 11.352 24.436 25.541 47.52 41.89 68.926 17.644 23.102 37.783 44.285 59.837 63.213h-43.043c-2.193-2.289-4.482-4.484-6.646-6.801-21.491-22.3-40.659-46.8-56.861-73.18v-63z"/><path d="m520.6 1047.2c28.32-11.436 55.064-26.725 79.4-45.166v23.002c-18.617 13.494-38.482 25.289-59.342 34.973h-58.132c12.929-3.512 25.654-7.787 38.074-12.809z"/><path d="m0 1037.4c5.992 7.717 12.195 15.271 18.67 22.59h-18.67v-22.6z"/><path d="m584.31 1060c5.289-3.381 10.547-6.814 15.689-10.418v10.418h-15.689z"/></g><path d="m378.65 760h0.282c-0.536 1.137-0.962 2.322-1.432 3.484 0.27-1.193 0.79-2.316 1.15-3.484z"/><path d="m379.88 760c-1.679 3.523-3.309 7.07-4.917 10.625-0.185 0.248-0.284 0.627-0.622 0.697-0.431 0.971-1.014 1.951-1.021 3.041 0.663-1.117 1.254-2.277 1.813-3.449 1.875-3.662 3.809-7.297 5.768-10.914h-1.021z"/><path d="m530.8 760c-24.863 20.658-51.726 39.039-80.619 53.611-23.527 11.854-48.405 21.143-74.133 26.906-27.768 6.248-56.533 8.336-84.869 5.428-7.965-0.797-15.887-2.006-23.752-3.48-1.066-0.197-2.136-0.375-3.182-0.654-0.328-0.078-0.656-0.137-0.982-0.189 0.191 0 0.386 0.004 0.585 0.012-0.57-0.34-1.241-0.348-1.808-0.004 0.575 0.17 1.154 0.34 1.742 0.484 6.984 1.805 14.034 3.367 21.153 4.543 19.329 3.234 39.057 3.91 58.584 2.363 17.669-1.393 35.179-4.613 52.248-9.373 23.243-6.467 45.645-15.813 66.864-27.262 14.182-7.658 27.85-16.254 40.984-25.59 11.818-8.379 23.183-17.387 34.193-26.795h-7.008z"/></g></svg>
