<?xml version="1.0" encoding="UTF-8" standalone="no"?>
<svg xmlns:rdf="http://www.w3.org/1999/02/22-rdf-syntax-ns#" xmlns="http://www.w3.org/2000/svg" xml:space="preserve" height="400" width="400" version="1.1" xmlns:cc="http://creativecommons.org/ns#" xmlns:dc="http://purl.org/dc/elements/1.1/" viewBox="0 0 399.9953 399.9953"><g transform="matrix(.47036 0 0 -.47037 0 400)"><g transform="scale(.1)"><path fill="#818181" d="m2338.7 4748.6-1.0393 0.6469c17.064 27.223 36.068 53.099 56.822 77.448-23.14-19.725-44.902-41.052-65.094-63.778 21.602 24.89 45.029 48.115 70.11 69.505-22.376-26.237-42.728-54.255-60.798-83.822"/><path fill="#747474" d="m2263.6 4254.1c-13.765 52.834-21.083 108.27-21.083 165.41 0 127.37 36.471 246.16 99.464 346.68l1.0392-0.6468c-60.597-99.157-95.572-215.66-95.572-340.38 0-59.038 7.8265-116.26 22.483-170.67l-6.3312-0.3924"/><path fill="#828282" d="m2873.9 3793.8c-304.19 0-559.91 207.59-633.18 488.85l6.3312 0.3923c75.073-278.58 329.49-483.6 631.79-483.6 77.448 0 151.74 13.489 220.67 38.231l0.2333-3.7648c-70.385-25.94-146.46-40.108-225.84-40.108"/><path fill="#8a8a8a" d="m3069.5 3842.1-0.2332 3.7648c75.179 26.979 143.98 67.331 203.58 118.16-2.8315-3.3194-5.6843-6.5857-8.5689-9.8521 1.1879 1.3787 2.365 2.7573 3.5527 4.136-58.222-49.631-125.2-89.273-198.33-116.21"/><path fill="#828282" d="m2338 4749.4-0.9863 0.5939c16.014 24.922 33.66 48.677 52.802 71.128-23.108-19.694-44.827-40.957-64.987-63.641 1.6226 1.8772 3.2557 3.7331 4.8995 5.5889 20.192 22.727 41.953 44.053 65.094 63.778-20.754-24.349-39.758-50.225-56.822-77.448"/><path fill="#757575" d="m2257.4 4253.6c-12.896 51.243-19.747 104.9-19.747 160.16 0 130.02 38.008 251.11 103.42 352.91l0.9862-0.5939c-62.994-100.51-99.464-219.31-99.464-346.68 0-57.14 7.3174-112.57 21.083-165.41l-6.2782-0.3924m71.467 520.54 0.021 0.021-0.021-0.021"/><path fill="#838383" d="m2869.2 3788.4c-306.09 0-563.09 210.17-634.52 494.1l6.2781 0.3924c73.27-281.26 328.99-488.85 633.18-488.85 79.389 0 155.46 14.168 225.84 40.108l0.2226-3.7224c-71.817-27.159-149.67-42.028-231.01-42.028"/><path fill="#8c8c8c" d="m3069.9 3838.7-0.2227 3.7224c73.132 26.937 140.11 66.578 198.33 116.21-1.1878-1.3786-2.365-2.7573-3.5527-4.1359-1.7498-2.0044-3.5103-4.0193-5.2813-6.0131 1.2726 1.474 2.5452 2.9482 3.8072 4.4328-56.822-48.433-122-87.332-193.09-114.22"/><path fill="#828282" d="m2337 4750.2-0.9014 0.5621c14.911 22.631 31.179 44.286 48.698 64.85-21.178-18.05-41.19-37.414-59.908-57.967l-0.074 0.042c20.16 22.684 41.879 43.947 64.987 63.641-19.142-22.451-36.789-46.206-52.802-71.128"/><path fill="#767676" d="m2251.4 4253.1c-12.058 49.663-18.442 101.52-18.442 154.9 0 132.66 39.578 256.03 107.46 359.12l0.9014-0.562c-65.412-101.81-103.42-222.9-103.42-352.91 0-55.252 6.8508-108.91 19.746-160.16l-6.2463-0.3818m72.549 515.05c1.718 1.962 3.436 3.9239 5.1646 5.8646l0.021 0.021 0.074-0.042c-1.7604-1.9407-3.5102-3.892-5.26-5.8434"/><path fill="#838383" d="m2864.4 3782.8c-307.97 0-566.24 212.8-635.82 499.38l6.2463 0.3818c71.425-283.93 328.43-494.1 634.52-494.1 81.34 0 159.19 14.868 231.01 42.028l0.2227-3.6693c-73.249-28.422-152.87-44.022-236.17-44.022"/><path fill="#8d8d8d" d="m3070.2 3835.2-0.2226 3.6693c71.085 26.884 136.26 65.783 193.09 114.22-1.262-1.4847-2.5346-2.9588-3.8073-4.4329-1.665-1.9089-3.3194-3.7966-4.995-5.6843 1.262 1.4529 2.5346 2.927 3.786 4.4011-55.422-47.224-118.8-85.392-187.85-112.17"/><path fill="#838383" d="m2336.3 4750.9-0.8378 0.509c13.755 20.383 28.623 39.938 44.52 58.603-19.227-16.374-37.51-33.862-54.732-52.336l-0.1592 0.106c18.718 20.552 38.73 39.917 59.908 57.967-17.52-20.563-33.788-42.218-48.698-64.85"/><path fill="#777" d="m2245.4 4252.7c-11.241 48.051-17.191 98.16-17.191 149.64 0 135.32 41.169 260.97 111.56 365.28l0.8377-0.5089c-67.883-103.09-107.46-226.46-107.46-359.12 0-53.375 6.3843-105.23 18.442-154.9l-6.1933-0.3923m73.578 509.56c1.718 1.9724 3.4254 3.9238 5.1646 5.8857 1.7499 1.9514 3.4996 3.9027 5.2602 5.8434l0.159-0.106c-3.5738-3.8284-7.1053-7.71-10.584-11.623"/><path fill="#848484" d="m2859.6 3777.4c-309.87 0-569.41 215.39-637.07 504.63l6.1933 0.3924c69.579-286.58 327.85-499.38 635.82-499.38 83.302 0 162.92 15.6 236.17 44.021l0.2227-3.6269c-74.659-29.694-156.08-46.036-241.34-46.036"/><path fill="#8e8e8e" d="m3070.6 3831.9-0.2228 3.6269c69.049 26.778 132.42 64.945 187.85 112.17-1.2514-1.474-2.524-2.9481-3.7861-4.401-1.6542-1.9089-3.3086-3.7966-4.9842-5.6737 1.262 1.4529 2.5028 2.8953 3.7542 4.3587-54.022-46.015-115.59-83.419-182.61-110.08"/><path fill="#858585" d="m2335.6 4751.5-0.7636 0.4666c12.556 18.156 26.004 35.643 40.278 52.42-17.297-14.73-33.809-30.341-49.483-46.768l-0.244 0.1484c17.222 18.474 35.506 35.962 54.732 52.336-15.897-18.665-30.765-38.22-44.52-58.603"/><path fill="#787878" d="m2239.4 4252.4c-10.457 46.439-15.982 94.766-15.982 144.37 0 137.96 42.802 265.89 115.74 371.39l0.7636-0.4666c-70.396-104.31-111.56-229.96-111.56-365.28 0-51.477 5.9494-101.59 17.191-149.64l-6.1509-0.3712m74.617 504.11c1.6968 1.9513 3.3936 3.8815 5.1117 5.8222 3.4784 3.9132 7.0099 7.7946 10.584 11.623l0.244-0.1484c-5.4086-5.6631-10.732-11.443-15.939-17.297"/><path fill="#858585" d="m2854.9 3771.9c-311.74 0-572.56 218.01-638.29 509.9l6.1509 0.3712c67.66-289.24 327.21-504.63 637.07-504.63 85.254 0 166.68 16.342 241.34 46.036l0.2121-3.5633c-76.059-31.009-159.27-48.115-246.48-48.115"/><path fill="#8f8f8f" d="m3070.9 3828.6-0.2121 3.5633c67.013 26.661 128.59 64.065 182.61 110.08-1.2514-1.4635-2.4922-2.9058-3.7543-4.3587-1.7815-2.0573-3.5738-4.1041-5.3873-6.1403 1.3787 1.5908 2.7468 3.1815 4.1148 4.7829-52.611-44.796-112.38-81.436-177.37-107.93"/><path fill="#868686" d="m2335 4752.1-0.6894 0.4242c11.305 15.96 23.31 31.401 35.962 46.27-15.345-13.076-30.076-26.82-44.159-41.232l-0.3182 0.1909c15.674 16.427 32.186 32.038 49.483 46.768-14.274-16.777-27.722-34.265-40.278-52.42"/><path fill="#797979" d="m2233.5 4252c-9.7035 44.817-14.826 91.373-14.826 139.1 0 140.63 44.467 270.82 120 377.46l0.6894-0.4242c-72.941-105.5-115.74-233.43-115.74-371.39 0-49.6 5.5252-97.926 15.982-144.37l-6.0979-0.3818m75.571 498.64c1.7074 1.9619 3.4148 3.9026 5.1434 5.854 5.207 5.8539 10.531 11.634 15.939 17.297l0.3182-0.1909c-7.3069-7.4765-14.455-15.144-21.401-22.96"/><path fill="#868686" d="m2850.1 3766.5c-313.62 0-575.69 220.63-639.45 515.16l6.0979 0.3817c65.73-291.89 326.55-509.9 638.29-509.9 87.215 0 170.42 17.106 246.48 48.115l0.2121-3.5209c-77.448-32.356-162.44-50.236-251.64-50.236"/><path fill="#8f8f8f" d="m3071.3 3825.3-0.2121 3.5208c64.988 26.491 124.76 63.132 177.37 107.93-1.3681-1.6013-2.7361-3.1921-4.1149-4.7828-1.7179-1.9832-3.4677-3.9663-5.2069-5.9388 1.4422 1.665 2.8739 3.3299 4.3056 5.0161-51.201-43.586-109.18-79.442-172.14-105.74"/><path fill="#878787" d="m2334.4 4752.7-0.6151 0.3818c10 13.797 20.542 27.191 31.56 40.151-13.384-11.39-26.311-23.32-38.74-35.739l-0.403 0.2439c14.083 14.412 28.814 28.156 44.159 41.232-12.652-14.868-24.657-30.309-35.962-46.27"/><path fill="#797979" d="m2227.5 4251.7c-8.9824 43.215-13.691 87.958-13.691 133.84 0 143.29 46.153 275.74 124.31 383.49l0.615-0.3818c-75.529-106.64-120-236.83-120-377.46 0-47.722 5.1222-94.278 14.826-139.1l-6.0661-0.3817m76.748 493.44c1.6226 1.8665 3.2451 3.7224 4.8889 5.5782 6.9463 7.8159 14.094 15.483 21.401 22.96l0.403-0.244c-9.1734-9.1627-18.071-18.601-26.693-28.294"/><path fill="#878787" d="m2845.3 3760.9c-315.47 0-578.8 223.3-640.57 520.44l6.0661 0.3818c63.757-294.53 325.83-515.16 639.45-515.16 89.199 0 174.19 17.88 251.64 50.236l0.2121-3.4784c-78.827-33.724-165.62-52.42-256.79-52.42"/><path fill="#909090" d="m3071.6 3822.1-0.2121 3.4784c62.962 26.3 120.94 62.156 172.14 105.74-1.4317-1.6862-2.8634-3.3512-4.3057-5.0162-1.5483-1.7816-3.1072-3.542-4.6662-5.3131 1.3151 1.5272 2.6407 3.0649 3.9557 4.6132-49.79-42.367-105.97-77.427-166.91-103.5"/><path fill="#888" d="m2333.9 4753.3-0.5515 0.3394c8.6643 11.676 17.7 23.034 27.106 34.095-11.432-9.7248-22.525-19.842-33.257-30.32l-0.4772 0.2969c12.429 12.418 25.357 24.349 38.74 35.739-11.018-12.959-21.56-26.354-31.56-40.151"/><path fill="#7a7a7a" d="m2221.7 4251.3c-8.2825 41.572-12.631 84.554-12.631 128.55 0 145.96 47.892 280.66 128.7 389.48l0.5515-0.3394c-78.159-107.75-124.31-240.19-124.31-383.49 0-45.877 4.7086-90.62 13.691-133.84l-6.0024-0.3712m77.713 488.08c1.6756 1.9195 3.3512 3.8284 5.0374 5.7267 8.6219 9.693 17.52 19.132 26.693 28.294l0.4772-0.297c-11.135-10.849-21.868-22.101-32.207-33.724"/><path fill="#888" d="m2840.5 3755.5c-317.33 0-581.91 225.93-641.63 525.71l6.0025 0.3713c61.774-297.14 325.11-520.44 640.57-520.44 91.171 0 177.96 18.697 256.79 52.42l0.2121-3.4148c-80.195-35.134-168.78-54.648-261.94-54.648"/><path fill="#919191" d="m3072 3819-0.2121 3.4148c60.947 26.078 117.12 61.138 166.91 103.5-1.315-1.5483-2.6406-3.0861-3.9557-4.6132-1.7922-2.0573-3.5951-4.1147-5.3979-6.1509 1.4529 1.6756 2.8952 3.3512 4.3268 5.0374-48.359-41.126-102.75-75.38-161.67-101.19"/><path fill="#898989" d="m2333.5 4753.7-0.4773 0.2969c7.2751 9.5658 14.805 18.919 22.578 28.072-9.4597-8.0493-18.707-16.374-27.69-24.932l-0.562 0.3394c10.732 10.478 21.825 20.595 33.257 30.32-9.4066-11.061-18.442-22.419-27.106-34.095"/><path fill="#7b7b7b" d="m2215.8 4251c-7.6143 39.928-11.591 81.139-11.591 123.28 0 148.62 49.653 285.58 133.16 395.42l0.4773-0.2969c-80.81-108.82-128.7-243.52-128.7-389.48 0-44 4.3479-86.982 12.63-128.55l-5.9706-0.3711m78.339 482.36c1.7711 2.0467 3.5527 4.0829 5.345 6.0978 10.34 11.623 21.072 22.875 32.207 33.724l0.5621-0.3393c-13.246-12.62-25.961-25.802-38.114-39.482"/><path fill="#898989" d="m2835.8 3750c-319.2 0-585.01 228.59-642.67 530.98l5.9706 0.3712c59.728-299.78 324.3-525.71 641.63-525.71 93.165 0 181.75 19.513 261.94 54.648l0.2015-3.3618c-81.542-36.577-171.92-56.928-267.08-56.928"/><path fill="#929292" d="m3072.3 3815.9-0.2015 3.3618c58.921 25.813 113.31 60.067 161.67 101.19-1.4317-1.6862-2.8741-3.3618-4.3269-5.0374-1.5907-1.824-3.1815-3.6481-4.7934-5.4509 1.3786 1.5907 2.7361 3.1708 4.104 4.7722-46.927-39.896-99.538-73.323-156.46-98.839"/><path fill="#8a8a8a" d="m2333.2 4754.2-0.403 0.2439c5.8329 7.4978 11.825 14.868 17.976 22.101-7.4977-6.3736-14.847-12.906-22.037-19.609l-0.6469 0.403c8.9825 8.5582 18.23 16.883 27.69 24.932-7.7735-9.1521-15.303-18.506-22.578-28.072"/><path fill="#7c7c7c" d="m2210.2 4250.6c-6.9674 38.274-10.605 77.703-10.605 117.99 0 151.3 51.445 290.5 137.7 401.31l0.403-0.2439c-83.504-109.84-133.16-246.8-133.16-395.42 0-42.144 3.9768-83.355 11.591-123.28l-5.9282-0.3605m79.241 476.99c1.665 1.93 3.33 3.8283 5.0268 5.7267 12.153 13.68 24.869 26.862 38.114 39.482l0.647-0.403c-15.292-14.221-29.917-29.185-43.788-44.806"/><path fill="#8a8a8a" d="m2831 3744.6c-321.05 0-588.09 231.25-643.66 536.26l5.9282 0.3606c57.659-302.39 323.47-530.98 642.67-530.98 95.159 0 185.53 20.351 267.08 56.928l0.2015-3.3195c-82.878-38.03-175.06-59.25-272.22-59.25"/><path fill="#939393" d="m3072.6 3812.8-0.2015 3.3193c56.917 25.516 109.53 58.943 156.46 98.839-1.368-1.6014-2.7256-3.1816-4.1041-4.7723-1.7074-1.9725-3.4254-3.9345-5.1646-5.8858 1.421 1.6438 2.8421 3.2876 4.2526 4.9419-45.496-38.666-96.315-71.244-151.24-96.442"/><path fill="#8b8b8b" d="m2332.9 4754.6-0.3393 0.2015c4.348 5.4616 8.7915 10.86 13.309 16.173-5.5146-4.6874-10.955-9.4597-16.31-14.327l-0.7211 0.4454c7.1902 6.7023 14.54 13.235 22.037 19.609-6.1509-7.2326-12.143-14.603-17.976-22.101"/><path fill="#7d7d7d" d="m2204.4 4250.3c-6.363 36.63-9.6717 74.277-9.6717 112.72 0 153.97 53.28 295.41 142.3 407.16l0.3393-0.2015c-86.25-110.81-137.7-250.01-137.7-401.31 0-40.288 3.6375-79.718 10.605-117.99l-5.8752-0.3712m80.078 471.64c1.665 1.9195 3.3406 3.8284 5.0374 5.7267 13.871 15.621 28.496 30.585 43.788 44.806l0.7211-0.4454c-17.392-15.791-33.947-32.526-49.546-50.087"/><path fill="#8c8c8c" d="m2826.2 3739c-322.9 0-591.17 233.91-644.59 541.53l5.8751 0.3713c55.57-305.01 322.61-536.26 643.66-536.26 97.163 0 189.34 21.221 272.22 59.25l0.2015-3.2663c-84.204-39.525-178.19-61.626-277.36-61.626"/><path fill="#949494" d="m3073 3809.8-0.2015 3.2663c54.923 25.198 105.74 57.776 151.24 96.442-1.4105-1.6544-2.8315-3.2981-4.2526-4.9419-1.7498-2.0256-3.5209-4.0299-5.3025-6.0343 1.5271 1.7499 3.0224 3.4997 4.5283 5.2601-44.042-37.425-93.101-69.145-146.01-93.992"/><path fill="#8c8c8c" d="m2332.7 4754.9-0.2652 0.1697c2.821 3.4572 5.6737 6.872 8.5583 10.276-3.5209-3.0013-7.0205-6.0342-10.478-9.0991l-0.8165 0.4984c5.3555 4.8677 10.796 9.6399 16.31 14.328-4.5177-5.3132-8.9612-10.711-13.309-16.173"/><path fill="#7e7e7e" d="m2198.7 4249.9c-5.7797 34.954-8.7809 70.841-8.7809 107.44 0 156.64 55.167 300.33 146.97 412.97l0.2651-0.1697c-89.1-111.7-142.3-253.1-142.3-407.1 0-38.443 3.3088-76.091 9.6718-112.72l-5.8328-0.3606m80.874 466.26c1.6649 1.9195 3.3405 3.8284 5.0373 5.7373 15.6 17.562 32.154 34.296 49.547 50.087l0.8166-0.4985c-19.556-17.328-38.051-35.802-55.4-55.326"/><path fill="#8d8d8d" d="m2821.5 3733.6c-131.66 0-254.27 38.91-356.9 105.83l-120.84 101.43c-86.325 92.21-146.23 209.41-167.74 339.58l5.8328 0.3606c53.428-307.62 321.69-541.53 644.59-541.53 99.178 0 193.16 22.101 277.36 61.626l0.1909-3.2133c-85.508-41.052-181.3-64.075-282.5-64.075"/><path fill="#959595" d="m3073.3 3806.8-0.1909 3.2133c52.908 24.848 101.97 56.567 146.01 93.992-1.5059-1.7604-3.0012-3.5102-4.5283-5.2601-1.5483-1.7922-3.1285-3.5951-4.7086-5.3661 1.421 1.6332 2.8209 3.2663 4.2208 4.9101-42.6-36.184-89.877-67.034-140.8-91.489"/><path fill="#8d8d8d" d="m2332.5 4755.3-0.1802 0.1167c1.2407 1.4847 2.4815 2.9588 3.7329 4.4329-1.5377-1.3044-3.0542-2.6089-4.5813-3.9239l-0.8909 0.5516c3.4573 3.0647 6.9569 6.0978 10.478 9.099-2.8846-3.4042-5.7373-6.819-8.5583-10.276"/><path fill="#7e7e7e" d="m2193.1 4249.6c-5.2177 33.268-7.9326 67.405-7.9326 102.14 0 159.33 57.076 305.26 151.74 418.74l0.1803-0.1166c-91.808-112.64-146.97-256.33-146.97-412.97 0-36.598 3.0011-72.485 8.7809-107.44l-5.7903-0.3499m81.627 460.88c1.6649 1.9089 3.3511 3.839 5.0373 5.7267 17.35 19.524 35.845 37.998 55.4 55.326l0.8909-0.5514c-21.74-18.803-42.229-39.026-61.329-60.502"/><path fill="#8e8e8e" d="m2816.6 3728.1c-114.53 0-222.17 29.418-315.81 81.128l-36.163 30.341c102.64-66.918 225.24-105.83 356.9-105.83 101.19 0 196.99 23.024 282.5 64.075l0.1909-3.1497c-86.791-42.611-184.4-66.568-287.62-66.568m-472.81 212.9-36.47 30.606c-70.438 87.226-118.92 192.87-137.06 308.63l5.7904 0.3499c21.507-130.18 81.414-247.37 167.74-339.58"/><path fill="#969696" d="m3073.6 3803.9-0.1908 3.1497c50.925 24.455 98.202 55.305 140.8 91.489-1.3998-1.6438-2.7997-3.2769-4.2207-4.9101-1.7393-2.015-3.4998-4.0193-5.2707-6.013 1.5059 1.7286 2.9906 3.4678 4.4753 5.207-41.147-34.944-86.643-64.903-135.6-88.923"/><path fill="#8e8e8e" d="m2332.5 4755.6-0.8484 0.509c1.5271 1.315 3.0437 2.6194 4.5814 3.9238-1.2514-1.4741-2.4922-2.9481-3.733-4.4328"/><path fill="#7f7f7f" d="m2187.4 4249.3c-4.6874 31.603-7.1265 63.948-7.1265 96.856 0 161.38 58.54 309.01 155.41 423.09-23.543-19.99-45.654-41.603-66.165-64.69 1.7499 2.0044 3.4891 3.9981 5.2601 5.9919 19.1 21.475 39.588 41.699 61.329 60.502l0.8484-0.509c-94.66-113.47-151.74-259.41-151.74-418.74 0-34.731 2.7149-68.869 7.9325-102.14l-5.7479-0.3606"/><path fill="#8e8e8e" d="m2811.9 3722.7c-102.3 0-199.08 23.458-285.31 65.316l-25.558 21.454c93.632-51.71 201.27-81.128 315.81-81.128 103.22 0 200.83 23.957 287.62 66.568l0.1909-3.1072c-88.075-44.202-187.5-69.102-292.75-69.102m-504.34 249.14-25.876 21.719c-60.109 82.984-101.21 180.62-116.93 286.55l5.7479 0.3604c18.135-115.75 66.621-221.4 137.06-308.63"/><path fill="#979797" d="m3073.9 3801.1-0.1909 3.1073c48.953 24.02 94.448 53.979 135.6 88.923-1.4847-1.7392-2.9694-3.4784-4.4753-5.2071-1.7499-2.0149-3.4997-4.0086-5.2707-6.0024 1.5801 1.8135 3.1603 3.6587 4.7192 5.4934-39.673-33.682-83.419-62.739-130.38-86.314"/><path fill="#808080" d="m2182 4249c-4.1889 29.917-6.3523 60.48-6.3523 91.553 0 161.34 58.508 308.94 155.33 423.01-23.554-19.99-45.676-41.614-66.186-64.69 1.665 1.9195 3.3407 3.8284 5.0268 5.7266 20.51 23.087 42.621 44.7 66.164 64.691-96.866-114.08-155.41-261.71-155.41-423.09 0-32.907 2.4391-65.253 7.1265-96.856l-5.7055-0.35"/><path fill="#8e8e8e" d="m2807.1 3717.1c-92.232 0-179.99 19.068-259.58 53.513l-20.786 17.445c86.229-41.858 183.01-65.316 285.31-65.316 105.25 0 204.68 24.9 292.75 69.102l0.1803-3.0437c-89.336-45.824-190.57-71.7-297.87-71.7m-525.28 276.5-21.104 17.71c-52.251 79.145-87.788 170.34-101.53 268.49l5.7055 0.35c15.717-105.92 56.822-203.56 116.93-286.55"/><path fill="#989898" d="m3074.3 3798.3-0.1802 3.0437c46.959 23.575 90.704 52.633 130.38 86.314-1.5589-1.8347-3.139-3.68-4.7192-5.4934-1.5907-1.8347-3.1815-3.6481-4.7828-5.4616 1.4953 1.7392 3.0012 3.489 4.4859 5.2389-38.21-32.43-80.184-60.565-125.18-83.642"/><path fill="#818181" d="m2176.5 4248.8c-3.7117 28.22-5.6312 57.012-5.6312 86.261 0 161.3 58.476 308.87 155.26 422.93-23.554-19.99-45.697-41.625-66.207-64.701 1.6649 1.9195 3.3405 3.8284 5.0373 5.7373 20.51 23.076 42.632 44.7 66.186 64.69-96.824-114.07-155.33-261.67-155.33-423.01 0-31.073 2.1634-61.636 6.3524-91.553l-5.6631-0.35"/><path fill="#8f8f8f" d="m2802.3 3711.7c-83.472 0-163.32 15.632-236.72 44.138l-17.912 15.027c79.59-34.445 167.35-53.513 259.58-53.513 107.3 0 208.54 25.876 297.87 71.7l0.1803-2.9906c-90.567-47.479-193.64-74.362-303-74.362m-541.44 299.87-18.188 15.261c-45.909 75.603-76.939 161.26-89.008 252.88l5.663 0.3499c13.744-98.149 49.282-189.34 101.53-268.49"/><path fill="#999" d="m3074.6 3795.5-0.1803 2.9906c44.997 23.076 86.972 51.212 125.18 83.642-1.4847-1.7499-2.9906-3.4998-4.4859-5.2389-1.8983-2.1741-3.786-4.3269-5.7055-6.4797 1.7392 1.9938 3.4572 3.9874 5.1646 6.0131-36.736-31.179-76.939-58.37-119.97-80.927"/><path fill="#828282" d="m2171.2 4248.7c-3.277 26.523-4.9632 53.545-4.9632 80.959 0 161.27 58.455 308.81 155.19 422.85-23.638-20.043-45.835-41.741-66.408-64.902 1.7286 1.9937 3.4466 3.9555 5.2071 5.9281 20.51 23.076 42.653 44.711 66.207 64.701-96.781-114.06-155.26-261.63-155.26-422.93 0-29.249 1.9195-58.041 5.6312-86.261l-5.61-0.35"/><path fill="#909090" d="m2797.5 3706.2c-75.667 0-148.31 12.832-215.92 36.471l-15.865 13.32c73.408-28.506 153.25-44.138 236.72-44.138 109.36 0 212.43 26.884 303 74.362l0.1803-2.9375c-91.808-49.165-196.68-77.077-308.12-77.077m-554.68 320.78-16.162 13.574c-40.596 72.273-67.851 153.03-78.456 238.95l5.61 0.35c12.068-91.617 43.099-177.27 89.008-252.88"/><path fill="#999" d="m3074.9 3792.9-0.1803 2.9376c43.035 22.557 83.239 49.748 119.97 80.927-1.7074-2.0256-3.4253-4.0193-5.1645-6.0131-1.4953-1.718-3.0119-3.4572-4.5178-5.154 1.5589 1.8029 3.1284 3.6269 4.6663 5.451-35.251-29.906-73.705-56.154-114.78-78.148"/><path fill="#828282" d="m2166 4248.4c-2.8528 24.816-4.3269 50.077-4.3269 75.667 0 161.23 58.434 308.73 155.13 422.78-23.586-20.001-45.75-41.646-66.281-64.744 1.612 1.8665 3.2346 3.7118 4.8783 5.5571 20.574 23.161 42.77 44.859 66.409 64.902-96.739-114.05-155.19-261.58-155.19-422.85 0-27.414 1.6862-54.436 4.9631-80.959l-5.5782-0.3499"/><path fill="#919191" d="m2792.7 3700.8c-68.508 0-134.57 10.531-196.63 30.055l-14.359 12.058c67.607-23.639 140.25-36.471 215.92-36.471 111.44 0 216.31 27.912 308.12 77.077l0.1803-2.8845c-93.016-50.872-199.73-79.834-313.23-79.834m-565.91 340-14.656 12.291c-36.025 69.123-60.067 145.46-69.378 226.31l5.5782 0.35c10.605-85.922 37.86-166.68 78.456-238.95"/><path fill="#9b9b9b" d="m3075.2 3790.2-0.1803 2.8845c41.073 21.995 79.527 48.242 114.78 78.148-1.5377-1.8239-3.1073-3.6481-4.6663-5.4509-1.6967-1.9619-3.4147-3.9133-5.1328-5.8539 1.6013 1.8559 3.2027 3.7224 4.7828 5.5888-33.766-28.634-70.46-53.916-109.58-75.317"/><path fill="#838383" d="m2160.7 4248.3c-2.4709 23.119-3.7435 46.577-3.7435 70.354 0 161.2 58.402 308.67 155.06 422.69-23.702-20.086-45.941-41.826-66.578-65.051 1.7604 2.0361 3.5314 4.0405 5.3131 6.0448 20.531 23.098 42.696 44.742 66.281 64.744-96.696-114.05-155.13-261.55-155.13-422.78 0-25.59 1.4741-50.851 4.3268-75.667l-5.5252-0.3393"/><path fill="#929292" d="m2788 3695.2c-61.891 0-121.77 8.5901-178.51 24.646l-13.171 11.05c62.06-19.524 128.12-30.055 196.63-30.055 113.49 0 220.21 28.962 313.23 79.834l0.1697-2.8209c-94.215-52.633-202.76-82.655-318.34-82.655m-575.63 357.93-13.458 11.294c-32.048 66.112-53.29 138.44-61.445 214.68l5.5252 0.3394c9.3112-80.852 33.353-157.19 69.378-226.31"/><path fill="#9c9c9c" d="m3075.6 3787.7-0.1696 2.8209c39.122 21.401 75.815 46.683 109.58 75.317-1.5802-1.8665-3.1815-3.7329-4.7829-5.5888-1.7604-2.0256-3.5208-4.0299-5.3025-6.0343 1.6968 1.962 3.383 3.9239 5.0586 5.907-32.26-27.35-67.214-51.646-104.38-72.422"/><path fill="#838383" d="m2155.5 4248.1c-2.1104 21.39-3.1921 43.109-3.1921 65.051 0 161.15 58.37 308.59 154.98 422.61-23.702-20.075-45.952-41.816-66.578-65.03 1.6543 1.9089 3.3299 3.8178 5.0055 5.7055 20.637 23.225 42.876 44.965 66.578 65.051-96.654-114.02-155.06-261.5-155.06-422.69 0-23.776 1.2726-47.235 3.7436-70.354l-5.4828-0.3393"/><path fill="#939393" d="m2783.1 3689.8c-55.687 0-109.75 6.9568-161.37 20.054l-12.206 10.244c56.747-16.056 116.62-24.646 178.51-24.646 115.58 0 224.13 30.023 318.34 82.655l0.1591-2.7573c-95.381-54.414-205.77-85.55-323.44-85.55m-584.12 374.89-12.482 10.478c-28.549 63.248-47.341 131.82-54.446 203.86l5.4828 0.3393c8.1552-76.239 29.397-148.57 61.445-214.68"/><path fill="#9d9d9d" d="m3075.8 3785.2-0.1591 2.7573c37.171 20.775 72.125 45.071 104.39 72.422-1.6756-1.9832-3.3619-3.945-5.0586-5.907-1.5908-1.824-3.2028-3.6693-4.8041-5.4721 1.6226 1.8771 3.2345 3.7542 4.8464 5.6631-30.765-26.078-63.959-49.356-99.21-69.463"/><path fill="#858585" d="m2150.4 4248c-1.7817 19.672-2.6937 39.599-2.6937 59.738 0 161.12 58.338 308.53 154.92 422.54-23.692-20.065-45.941-41.784-66.568-64.987 1.6543 1.9089 3.3193 3.8072 4.9949 5.6843 20.627 23.214 42.876 44.955 66.578 65.03-96.612-114.01-154.98-261.46-154.98-422.61 0-21.942 1.0817-43.661 3.1921-65.051l-5.4403-0.3393"/><path fill="#949494" d="m2778.4 3684.3c-49.843 0-98.361 5.5676-145.01 16.13l-11.411 9.5763c51.614-13.097 105.68-20.054 161.37-20.054 117.67 0 228.06 31.136 323.44 85.55l0.1697-2.7149c-96.548-56.228-208.77-88.488-328.55-88.488m-591.68 391.01-11.666 9.7884c-25.441 60.491-42.059 125.61-48.221 193.73l5.4403 0.3394c7.1053-72.04 25.897-140.61 54.446-203.86"/><path fill="#9e9e9e" d="m3076.2 3782.6-0.1696 2.7149c35.251 20.107 68.445 43.385 99.21 69.463-1.6119-1.9089-3.2239-3.786-4.8464-5.6631-1.7181-1.9831-3.4467-3.9556-5.1859-5.9069 1.6862 1.9407 3.3512 3.892 5.0162 5.8539-29.249-24.784-60.703-47.044-94.024-66.462"/><path fill="#868686" d="m2145.3 4247.8c-1.4847 17.954-2.2377 36.11-2.2377 54.436 0 161.08 58.317 308.47 154.84 422.45-23.755-20.118-46.068-41.911-66.748-65.178 1.718 1.9938 3.4572 3.9557 5.1964 5.9176 20.627 23.204 42.876 44.923 66.568 64.988-96.58-114-154.92-261.41-154.92-422.54 0-20.139 0.9121-40.066 2.6937-59.738l-5.3979-0.3394"/><path fill="#959595" d="m2773.6 3678.9c-44.286 0-87.555 4.4011-129.37 12.79l-10.7 8.9823c46.651-10.562 95.169-16.13 145.01-16.13 119.78 0 232.01 32.26 328.55 88.488l0.1591-2.6405c-97.683-58.084-211.75-91.489-333.65-91.489m-598.41 406.44-10.976 9.2157c-22.663 57.84-37.33 119.68-42.643 184.18l5.3979 0.3393c6.1615-68.126 22.78-133.24 48.221-193.73"/><path fill="#9f9f9f" d="m3076.4 3780.2-0.1591 2.6407c33.321 19.418 64.775 41.678 94.024 66.462-1.665-1.9619-3.33-3.9133-5.0162-5.854-1.718-1.9831-3.4466-3.9556-5.1858-5.907 1.7392 2.0044 3.4678 4.0193 5.1752 6.0449-27.732-23.49-57.437-44.711-88.838-63.386"/><path fill="#878787" d="m2140.1 4247.7c-1.209 16.215-1.8135 32.6-1.8135 49.122 0 161.04 58.285 308.39 154.77 422.38-23.776-20.128-46.1-41.922-66.79-65.2 1.6756 1.9302 3.3512 3.8391 5.048 5.7374 20.68 23.267 42.993 45.061 66.748 65.178-96.527-113.98-154.84-261.37-154.84-422.45 0-18.325 0.7529-36.481 2.2376-54.436l-5.3555-0.3287"/><path fill="#969696" d="m2768.7 3673.3c-38.995 0-77.215 3.4148-114.33 9.9581l-10.107 8.4733c41.816-8.3884 85.084-12.79 129.37-12.79 121.9 0 235.97 33.406 333.65 91.489l0.1591-2.5876c-98.796-59.971-214.73-94.544-338.74-94.544m-604.45 421.29-10.372 8.6961c-20.16 55.284-33.098 114.06-37.626 175.15l5.3555 0.3288c5.3132-64.5 19.98-126.34 42.643-184.18"/><path fill="#a0a0a0" d="m3076.8 3777.9-0.1591 2.5875c31.401 18.676 61.106 39.896 88.838 63.386-1.7074-2.0256-3.436-4.0405-5.1752-6.0447-1.6227-1.8666-3.2452-3.7225-4.8891-5.5678 1.6968 1.9515 3.383 3.9133 5.0481 5.8859-26.205-22.186-54.17-42.346-83.663-60.247"/><path fill="#878787" d="m2135.1 4247.5c-0.9544 14.465-1.4422 29.09-1.4422 43.799 0 161.01 58.253 308.33 154.71 422.3-23.798-20.139-46.153-41.953-66.854-65.253 1.6756 1.9301 3.3724 3.8602 5.0692 5.7797 20.69 23.278 43.014 45.071 66.79 65.2-96.484-113.98-154.77-261.34-154.77-422.38 0-16.523 0.6045-32.907 1.8134-49.122l-5.3131-0.3288"/><path fill="#979797" d="m2764 3667.9c-33.947 0-67.278 2.577-99.825 7.5614l-9.5657 8.0386c37.118-6.5433 75.338-9.9581 114.33-9.9581 124.01 0 239.95 34.572 338.74 94.544l0.1485-2.5239c-99.899-61.891-217.67-97.662-343.84-97.662m-609.88 435.63-9.8308 8.2507c-17.922 52.834-29.28 108.66-33.109 166.57l5.3131 0.3288c4.5283-61.095 17.466-119.87 37.626-175.15"/><path fill="#a2a2a2" d="m3077 3775.6-0.1485 2.5239c29.492 17.901 57.458 38.061 83.663 60.247-1.665-1.9726-3.3512-3.9344-5.048-5.8857-1.718-1.9832-3.436-3.9451-5.1752-5.9071 1.7498 2.015 3.489 4.0511 5.207 6.0766-24.667-20.87-50.904-39.96-78.498-57.055"/><path fill="#888" d="m2130.1 4247.3c-0.7424 12.747-1.1135 25.558-1.1135 38.486 0 160.96 58.232 308.26 154.63 422.22-23.83-20.171-46.206-41.996-66.939-65.327 1.6862 1.9407 3.3936 3.8814 5.101 5.8009 20.701 23.299 43.056 45.114 66.854 65.253-96.452-113.97-154.71-261.3-154.71-422.3 0-14.709 0.4878-29.333 1.4423-43.799l-5.2707-0.3288"/><path fill="#989898" d="m2759.2 3662.4c-29.068 0-57.702 1.8982-85.763 5.5782l-9.1203 7.6462c32.547-4.9843 65.878-7.5613 99.825-7.5613 126.17 0 243.94 35.771 343.84 97.661l0.1485-2.4603c-100.98-63.853-220.61-100.86-348.93-100.86m-614.77 449.55-9.3536 7.8583c-15.886 50.416-25.844 103.52-29.026 158.39l5.2707 0.3288c3.8284-57.914 15.186-113.74 33.109-166.57"/><path fill="#a3a3a3" d="m3077.4 3773.4-0.1485 2.4603c27.594 17.095 53.831 36.184 78.498 57.055-1.718-2.0255-3.4572-4.0617-5.2071-6.0766-1.7392-2.015-3.489-3.9981-5.26-5.9919 1.8346 2.1104 3.6481 4.2314 5.4509 6.3524-23.13-19.556-47.627-37.552-73.334-53.799"/><path fill="#898989" d="m2125.2 4247.1c-0.5515 10.976-0.8273 22.037-0.8273 33.151 0 160.93 58.2 308.19 154.57 422.14-23.914-20.234-46.354-42.134-67.162-65.55 1.7393 1.9937 3.4785 3.9769 5.2283 5.9494 20.733 23.331 43.109 45.156 66.939 65.327-96.4-113.96-154.63-261.25-154.63-422.22 0-12.928 0.3711-25.738 1.1135-38.486l-5.2282-0.3182"/><path fill="#989898" d="m2754.4 3657c-24.392 0-48.444 1.3362-72.146 3.9345l-8.6749 7.2856c28.061-3.6799 56.694-5.5782 85.763-5.5782 128.32 0 247.94 37.011 348.93 100.86l0.1485-2.3967c-102.04-65.846-223.53-104.11-354.02-104.11m-619.18 463.05-8.9295 7.4978c-14.052 48.125-22.726 98.542-25.325 150.57l5.2283 0.3182c3.1815-54.87 13.14-107.97 29.026-158.39"/><path fill="#a4a4a4" d="m3077.6 3771.2-0.1484 2.3967c25.706 16.247 50.204 34.244 73.334 53.799-1.8028-2.121-3.6163-4.242-5.4509-6.3524-1.7074-1.9619-3.4359-3.9345-5.1753-5.8858 1.8878 2.1634 3.7542 4.3481 5.5995 6.5327-21.56-18.241-44.34-35.124-68.158-50.49"/><path fill="#8a8a8a" d="m2120.3 4247c-0.3818 9.237-0.5833 18.506-0.5833 27.838 0 160.89 58.179 308.12 154.5 422.06-23.882-20.192-46.312-42.081-67.087-65.454 1.633 1.8877 3.2768 3.7648 4.9313 5.6313 20.807 23.416 43.247 45.315 67.162 65.55-96.368-113.95-154.57-261.21-154.57-422.14 0-11.114 0.2757-22.175 0.8272-33.151l-5.1859-0.3288"/><path fill="#999" d="m2749.6 3651.4c-19.853 0-39.525 0.8908-58.921 2.6194l-8.2931 6.9569c23.702-2.5983 47.754-3.9345 72.146-3.9345 130.48 0 251.97 38.263 354.02 104.11l0.1379-2.3331c-103.07-67.872-226.45-107.42-359.09-107.42m-623.18 476.19-8.537 7.1583c-12.387 45.888-19.906 93.801-21.974 143.08l5.1858 0.3287c2.5982-52.028 11.273-102.44 25.325-150.57"/><path fill="#a5a5a5" d="m3077.9 3769.1-0.1378 2.3331c23.819 15.366 46.598 32.25 68.158 50.49-1.8453-2.1846-3.7117-4.3693-5.5995-6.5327-1.5908-1.8452-3.2133-3.6799-4.8359-5.504 1.8241 2.0998 3.6269 4.1996 5.4193 6.3206-20.001-16.915-41.041-32.653-63.004-47.107"/><path fill="#8c8c8c" d="m2115.5 4246.9c-0.2545 7.4659-0.3817 14.985-0.3817 22.504 0 160.86 58.147 308.05 154.44 421.98-23.882-20.181-46.323-42.059-67.098-65.422 1.6651 1.9194 3.3301 3.7965 5.0163 5.6948 20.775 23.373 43.205 45.262 67.087 65.454-96.325-113.94-154.5-261.17-154.5-422.06 0-9.3324 0.2015-18.601 0.5833-27.838l-5.1435-0.3183"/><path fill="#9a9a9a" d="m2744.9 3646c-15.483 0-30.818 0.5303-46.036 1.5908l-7.9431 6.6705c19.396-1.7286 39.069-2.6194 58.921-2.6194 132.64 0 256.02 39.546 359.09 107.42l0.1379-2.2801c-104.09-69.929-229.33-110.78-364.17-110.78m-626.78 488.99-8.1871 6.8719c-10.881 43.746-17.35 89.178-18.93 135.89l5.1434 0.3182c2.068-49.282 9.5869-97.195 21.974-143.08"/><path fill="#a6a6a6" d="m3078.2 3767.1-0.138 2.2801c21.963 14.455 43.003 30.192 63.004 47.107-1.7922-2.121-3.5951-4.2208-5.4192-6.3206-1.7074-1.9725-3.4254-3.9449-5.1646-5.8858 1.8665 2.1422 3.7224 4.3163 5.5676 6.4903-18.432-15.579-37.754-30.171-57.85-43.671"/><path fill="#8d8d8d" d="m2110.7 4246.7c-0.1378 5.6949-0.2121 11.432-0.2121 17.17 0 160.8 58.115 307.99 154.37 421.9-24.01-20.277-46.535-42.261-67.405-65.74 1.7711 2.0255 3.5315 4.0299 5.3131 6.0448 20.775 23.363 43.215 45.241 67.098 65.422-96.293-113.93-154.44-261.13-154.44-421.98 0-7.5189 0.1272-15.038 0.3817-22.504l-5.101-0.3076"/><path fill="#9b9b9b" d="m2740 3640.5c-11.231 0-22.387 0.2758-33.469 0.8378l-7.625 6.3949c15.218-1.0605 30.553-1.5908 46.036-1.5908 134.83 0 260.08 40.85 364.17 110.78l0.1378-2.2059c-105.08-72.018-232.22-114.22-369.24-114.22m-630.02 501.5-7.8583 6.5964c-9.5021 41.625-15.027 84.755-16.173 128.99l5.101 0.3075c1.5801-46.715 8.0492-92.147 18.93-135.89"/><path fill="#a6a6a6" d="m3078.5 3765.1-0.1379 2.2058c20.096 13.5 39.419 28.093 57.85 43.671-1.8453-2.174-3.7012-4.348-5.5676-6.4902-1.665-1.9195-3.3406-3.8391-5.0268-5.7373 1.8665 2.1528 3.7223 4.3268 5.5782 6.5114-16.862-14.242-34.445-27.647-52.696-40.161"/><path fill="#8d8d8d" d="m2105.9 4246.6c-0.075 3.9345-0.1061 7.8901-0.1061 11.835 0 160.78 58.084 307.93 154.29 421.82-23.967-20.245-46.46-42.176-67.299-65.613 1.6331 1.8771 3.2663 3.733 4.9101 5.5995 20.871 23.48 43.396 45.464 67.405 65.74-96.251-113.91-154.37-261.1-154.37-421.9 0-5.7373 0.075-11.475 0.2121-17.17l-5.048-0.3182"/><path fill="#9c9c9c" d="m2735.2 3635.1c-7.0842 0-14.168 0.1166-21.189 0.3393l-7.3387 6.1615c11.082-0.562 22.239-0.8378 33.469-0.8378 137.03 0 264.16 42.197 369.24 114.22l0.1272-2.1316c-106.05-74.161-235.08-117.75-374.31-117.75m-632.94 513.76-7.5614 6.3418c-8.2507 39.588-12.917 80.471-13.659 122.33l5.048 0.3181c1.1454-44.233 6.6706-87.364 16.173-128.99"/><path fill="#a7a7a7" d="m3078.7 3763.2-0.1273 2.1316c18.251 12.514 35.834 25.919 52.696 40.161-1.8559-2.1847-3.7118-4.3587-5.5783-6.5115-1.6437-1.8983-3.2981-3.786-4.9631-5.6631 1.8453 2.1422 3.7011 4.2951 5.5146 6.4585-15.261-12.896-31.126-25.102-47.542-36.577"/><path fill="#8e8e8e" d="m2101.2 4246.4c-0.021 2.1529-0.032 4.3376-0.032 6.501 0 160.74 58.062 307.85 154.23 421.74-24.052-20.309-46.62-42.314-67.522-65.836 1.7286 1.9831 3.4784 3.9769 5.2283 5.9493 20.839 23.437 43.332 45.368 67.299 65.613-96.209-113.9-154.29-261.04-154.29-421.82 0-3.9452 0.032-7.9009 0.1061-11.835l-5.0162-0.3077"/><path fill="#9d9d9d" d="m2730.4 3629.5c-3.0648 0-6.1403 0.021-9.1945 0.064l-7.0523 5.9176c7.0205-0.2228 14.105-0.3394 21.189-0.3394 139.23 0 268.26 43.586 374.31 117.75l0.1272-2.0786c-106.9-76.3-237.8-121.3-379.3-121.3m-635.56 525.74-7.275 6.1085c-7.116 37.605-11.019 76.324-11.4 115.91l5.0162 0.3076c0.7423-41.858 5.4085-82.74 13.659-122.33"/><path fill="#a8a8a8" d="m3079 3761.3-0.1273 2.0786c16.417 11.475 32.282 23.681 47.542 36.577-1.8135-2.1634-3.6694-4.3163-5.5146-6.4585-1.7711-2.0361-3.5526-4.0617-5.345-6.0873 1.962 2.2695 3.9027 4.5391 5.8435 6.8298-13.67-11.538-27.806-22.525-42.399-32.939"/><path fill="#8f8f8f" d="m2096.5 4246.4v1.1665c0 160.69 58.03 307.78 154.16 421.65-24.063-20.298-46.63-42.314-67.533-65.836 1.6544 1.9195 3.3406 3.8284 5.0161 5.7267 20.902 23.522 43.47 45.527 67.522 65.836-96.166-113.89-154.23-261-154.23-421.74 0-2.1634 0.01-4.3481 0.032-6.5009l-4.9738-0.3075"/><path fill="#9e9e9e" d="m2728.1 3624.1-6.7978 5.7055c3.0542-0.042 6.1297-0.064 9.1945-0.064 141.46 0 272.39 44.986 379.38 121.31l0.1273-1.9938c-107.29-78.095-239.19-124.42-381.91-124.96m-640.44 537.49-7.0099 5.8858c-6.0979 35.665-9.29 72.326-9.3643 109.72l4.9738 0.3077c0.3818-39.588 4.2844-78.307 11.4-115.91"/><path fill="#a9a9a9" d="m3079.2 3759.6-0.1273 1.9937c14.592 10.414 28.729 21.401 42.399 32.939-1.9407-2.2906-3.8814-4.5601-5.8434-6.8296-1.6225-1.8559-3.2345-3.7011-4.8677-5.5464 1.9089 2.2058 3.8072 4.4329 5.6949 6.6599-12.058-10.17-24.487-19.927-37.255-29.217"/><path fill="#909090" d="m2091.8 4246.2c0.9969 159.03 58.815 304.52 154.08 417.4-24.031-20.266-46.598-42.25-67.48-65.74 1.633 1.8878 3.2875 3.7648 4.9525 5.6314 20.902 23.522 43.47 45.538 67.533 65.836-96.134-113.88-154.16-260.97-154.16-421.65v-1.1666l-4.9207-0.3075"/><path fill="#9f9f9f" d="m2734.9 3618.7-6.5539 5.4934c142.72 0.5409 274.62 46.864 381.91 124.96l0.1167-1.9407c-105.33-78.201-234.92-125.55-375.47-128.51m-654 548.87-6.7766 5.6843c-4.9525 32.462-7.519 65.698-7.519 99.549 0 1.3893 0 2.7892 0.01 4.1784l4.9208 0.3076c0.074-37.393 3.2663-74.055 9.3642-109.72"/><path fill="#aaa" d="m3079.5 3757.8-0.1166 1.9407c12.768 9.2899 25.197 19.047 37.255 29.217-1.8878-2.227-3.786-4.4541-5.6949-6.6599-1.6649-1.9195-3.3405-3.8284-5.0373-5.7267 1.9195 2.2058 3.8178 4.4329 5.716 6.6705-10.435-8.8021-21.146-17.286-32.122-25.441"/><path fill="#909090" d="m2087.2 4246.1c2.2483 156.91 59.802 300.39 153.95 411.98-24.095-20.319-46.715-42.367-67.649-65.921 1.718 1.9831 3.4466 3.945 5.1859 5.907 20.881 23.49 43.449 45.474 67.48 65.74-95.265-112.88-153.08-258.37-154.08-417.4l-4.8889-0.3076"/><path fill="#a0a0a0" d="m2741.4 3613.6-6.3418 5.3237c140.55 2.9588 270.14 50.31 375.47 128.51l0.106-1.8559c-103.5-78.3-230.9-126.6-369.3-131.9m-667.12 559.88-6.5326 5.4828c-3.9133 28.93-5.9282 58.423-5.9282 88.425 0 3.1707 0.021 6.3522 0.064 9.5126l4.8889 0.3076c-0.01-1.3894-0.01-2.7892-0.01-4.1784 0-33.851 2.5664-67.087 7.519-99.549"/><path fill="#ababab" d="m3079.7 3756.2-0.106 1.8558c10.976 8.1553 21.687 16.639 32.122 25.441-1.8983-2.2376-3.7966-4.4647-5.7161-6.6705-1.7816-2.068-3.5739-4.1041-5.3873-6.1509 2.0361 2.3543 4.0723 4.7192 6.0767 7.1053-8.8022-7.4235-17.806-14.624-26.99-21.581"/><path fill="#919191" d="m2082.7 4245.9c3.4574 154.78 60.746 296.24 153.78 406.55-24.169-20.372-46.842-42.473-67.83-66.101 1.7181 1.9832 3.4466 3.9557 5.1858 5.907 20.934 23.554 43.555 45.602 67.649 65.921-94.151-111.6-151.7-255.07-153.95-411.98l-4.8359-0.2969"/><path fill="#a2a2a2" d="m2747.5 3608.6-6.1085 5.1328c138.44 5.2813 265.82 53.651 369.23 131.98l0.1167-1.7817c-101.56-78.488-226.82-127.84-363.24-135.33m-679.76 570.5-6.3311 5.3131c-2.9907 25.399-4.539 51.265-4.539 77.47 0 4.9632 0.052 9.9157 0.1697 14.858l4.8359 0.297c-0.042-3.1603-0.064-6.3418-0.064-9.5127 0-30.002 2.015-59.494 5.9282-88.424"/><path fill="#acacac" d="m3080 3754.6-0.1166 1.7818c9.1839 6.9568 18.188 14.158 26.99 21.581-2.0043-2.3862-4.0405-4.7511-6.0767-7.1054-1.6225-1.8665-3.2557-3.733-4.8995-5.5887 1.9938 2.3118 3.9875 4.6343 5.96 6.978-7.1583-6.0343-14.444-11.92-21.857-17.647"/><path fill="#919191" d="m2078.1 4245.8c4.645 152.66 61.647 292.08 153.58 401.12-24.211-20.404-46.916-42.526-67.936-66.186 1.6968 1.9513 3.3936 3.892 5.1116 5.8115 20.987 23.628 43.661 45.729 67.83 66.101-93.038-110.31-150.33-251.77-153.78-406.55l-4.8041-0.2969"/><path fill="#a3a3a3" d="m2753.6 3603.8-5.907 4.9632c136.42 7.4871 261.68 56.843 363.24 135.33l0.096-1.7074c-99.687-78.689-222.92-128.96-357.39-138.61m-692 580.77-6.1191 5.1435c-2.2271 21.931-3.3618 44.149-3.3618 66.663 0 6.766 0.106 13.511 0.3075 20.224l4.8041 0.297c-0.1167-4.942-0.1697-9.8945-0.1697-14.858 0-26.205 1.5483-52.071 4.539-77.47"/><path fill="#adadad" d="m3080.2 3753.1-0.095 1.7075c7.4129 5.7267 14.699 11.612 21.857 17.647-1.9726-2.3437-3.9663-4.6662-5.96-6.9781-1.7498-2.0149-3.5103-4.0193-5.2919-6.013 2.0998 2.4073 4.1784 4.8359 6.2357 7.2856-5.504-4.645-11.082-9.1945-16.745-13.649"/><path fill="#929292" d="m2073.7 4245.6c5.7903 150.53 62.516 287.95 153.32 395.69-24.179-20.372-46.864-42.462-67.861-66.09 1.6331 1.8877 3.2875 3.7647 4.9419 5.6312 21.019 23.66 43.724 45.782 67.936 66.186-91.935-109.04-148.94-248.46-153.58-401.12l-4.751-0.2969"/><path fill="#a4a4a4" d="m2759.5 3599.2-5.7161 4.7934c134.47 9.6082 257.66 59.918 357.43 138.59l0.106-1.6332c-98.033-78.869-219.24-130.11-351.82-141.75m-703.83 590.71-5.9282 4.9737c-1.5695 18.474-2.3755 37.17-2.3755 56.047 0 8.5583 0.1697 17.085 0.4984 25.569l4.7511 0.2969c-0.2015-6.7129-0.3076-13.458-0.3076-20.224 0-22.514 1.1347-44.732 3.3618-66.663"/><path fill="#aeaeae" d="m3080.5 3751.7-0.1061 1.633c5.6631 4.4541 11.241 9.0037 16.745 13.649-2.0574-2.4498-4.136-4.8784-6.2357-7.2857-1.6756-1.9406-3.3618-3.8601-5.0692-5.7796 2.1103 2.4285 4.1994 4.8889 6.2781 7.3492-3.839-3.2346-7.7098-6.4266-11.612-9.5656"/><path fill="#939393" d="m2069.2 4245.6c6.9145 148.4 63.333 283.8 153.03 390.26-24.201-20.393-46.906-42.494-67.925-66.143 1.6756 1.9301 3.3724 3.8603 5.0692 5.7691 20.998 23.628 43.682 45.718 67.861 66.09-90.8-107.75-147.53-245.17-153.32-395.69l-4.7193-0.2863"/><path fill="#a5a5a5" d="m2765.1 3594.6-5.5358 4.6343c132.58 11.634 253.79 62.877 351.82 141.75l0.095-1.5695c-96.346-79.071-215.62-131.23-346.38-144.81m-715.3 600.32-5.7479 4.8147c-1.0393 15.07-1.5589 30.256-1.5589 45.591 0 10.361 0.2333 20.68 0.7105 30.924l4.7193 0.2863c-0.3288-8.484-0.4985-17.01-0.4985-25.569 0-18.877 0.806-37.574 2.3755-56.047"/><path fill="#afafaf" d="m3081.1 3748.6c2.0467 2.3543 4.0723 4.73 6.0872 7.1266-2.1528-1.824-4.3268-3.6269-6.5008-5.4192l-0.096 1.5696c3.9027 3.139 7.7735 6.3312 11.612 9.5657-2.0786-2.4604-4.1678-4.9207-6.2782-7.3493-1.6013-1.8452-3.2027-3.6693-4.8252-5.4934"/><path fill="#949494" d="m2064.8 4245.5c8.0068 146.26 64.118 279.66 152.69 384.83-24.254-20.425-47.001-42.568-68.052-66.26 1.6968 1.9513 3.4148 3.9133 5.1328 5.8434 21.019 23.649 43.724 45.75 67.925 66.143-89.697-106.46-146.12-241.87-153.03-390.26l-4.6662-0.297"/><path fill="#a5a5a5" d="m2770.7 3590.3-5.3556 4.5071c130.76 13.585 250.03 65.74 346.38 144.81l0.085-1.4741c-94.682-79.294-212.11-132.36-341.11-147.84m-726.4 609.64-5.5676 4.6768c-0.6151 11.666-0.9333 23.448-0.9333 35.272 0 12.164 0.3288 24.264 0.9863 36.269l4.6662 0.2969c-0.4772-10.244-0.7106-20.563-0.7106-30.924 0-15.335 0.5197-30.521 1.559-45.591"/><path fill="#a5a5a5" d="m3076.5 3743.3c1.6225 1.8664 3.2239 3.7435 4.8358 5.6418v-0.1272c-1.6013-1.8453-3.2133-3.6906-4.8358-5.5146"/><path fill="#b0b0b0" d="m3081 3748.5v0.1273c0.456 0.5303 0.912 1.0817 1.368 1.6226l-1.3998-1.1772-0.085 1.4741c2.174 1.7923 4.3481 3.5951 6.501 5.4192-2.0151-2.3968-4.0406-4.7723-6.0873-7.1266-0.096-0.1167-0.2016-0.2333-0.297-0.3394"/><path fill="#959595" d="m2060.5 4245.3c9.0673 144.12 64.86 275.53 152.3 379.39-24.296-20.457-47.086-42.653-68.18-66.387 1.7074 1.962 3.4148 3.9133 5.1434 5.8541 21.051 23.692 43.799 45.835 68.052 66.26-88.573-105.17-144.68-238.57-152.69-384.83l-4.6238-0.2863"/><path fill="#a6a6a6" d="m2776 3586.1-5.1858 4.3481c129 15.483 246.43 68.551 341.11 147.84l0.032-0.4453c-1.612-1.8984-3.2133-3.7755-4.8359-5.642-1.7498-2.0149-3.5208-4.0405-5.3025-6.0342 2.1847 2.5028 4.3375 5.0374 6.4797 7.572-92.433-77.82-206.68-130.58-332.3-147.64m-737.15 618.66-5.398 4.5284c-0.3182 8.3355-0.4772 16.682-0.4772 25.081 0 13.999 0.4454 27.88 1.3044 41.646l4.6238 0.2864c-0.6575-12.005-0.9863-24.105-0.9863-36.269 0-11.825 0.3182-23.607 0.9333-35.272"/><path fill="#b1b1b1" d="m3081.2 3748.8-0.032 0.4454 1.3998 1.1771c-0.456-0.5408-0.912-1.0923-1.368-1.6225"/><path fill="#959595" d="m2056.1 4245.3c10.096 141.98 65.55 271.38 151.87 373.94-24.328-20.478-47.139-42.685-68.254-66.44 1.6862 1.9301 3.3723 3.8602 5.0798 5.7798 21.093 23.734 43.883 45.93 68.179 66.387-87.438-103.87-143.23-235.27-152.3-379.39l-4.5813-0.2758"/><path fill="#a7a7a7" d="m2781.2 3582-5.0162 4.2102c125.62 17.064 239.86 69.823 332.3 147.64-2.1423-2.5346-4.2951-5.0692-6.4797-7.572-1.5589-1.8028-3.1391-3.595-4.7192-5.3873 2.0786 2.4073 4.1359 4.8147 6.1827 7.2432-89.973-75.72-200.61-127.71-322.26-146.14m-747.57 627.4-5.2495 4.4011c-0.106 5.0056-0.1697 10.011-0.1697 15.038 0 15.812 0.5621 31.486 1.665 47.012l4.5814 0.2757c-0.859-13.765-1.3044-27.647-1.3044-41.646 0-8.3991 0.159-16.745 0.4772-25.081"/><path fill="#969696" d="m2051.9 4245.1c11.093 139.83 66.196 267.25 151.4 368.5-24.338-20.478-47.182-42.717-68.307-66.483 1.6756 1.9301 3.3618 3.8602 5.0586 5.7691 21.114 23.755 43.926 45.962 68.254 66.44-86.325-102.56-141.78-231.96-151.87-373.94l-4.5284-0.2863"/><path fill="#a8a8a8" d="m2786.4 3578-4.8678 4.0829c121.65 18.432 232.29 70.417 322.26 146.14-2.0467-2.4286-4.1042-4.8359-6.1827-7.2432-1.7499-2.0044-3.5102-4.0193-5.2707-6.0024 2.1635 2.4921 4.3057 5.0055 6.4373 7.5295-87.544-73.652-194.62-124.82-312.38-144.5m-757.68 635.89-5.0904 4.2738c-0.011 1.6968-0.021 3.4254-0.021 5.1222 0 17.636 0.6999 35.092 2.0786 52.368l4.5283 0.2863c-1.1029-15.526-1.665-31.2-1.665-47.012 0-5.0268 0.064-10.032 0.1697-15.038"/><path fill="#979797" d="m2047.7 4245c12.058 137.68 66.811 263.11 150.88 363.05-24.317-20.457-47.15-42.664-68.264-66.408 1.6544 1.8983 3.2982 3.7754 4.9737 5.6525 21.125 23.766 43.968 46.004 68.307 66.483-85.2-101.26-140.3-228.68-151.4-368.5l-4.4966-0.2757"/><path fill="#a9a9a9" d="m2791.4 3574.2-4.7193 3.9557c117.76 19.683 224.84 70.852 312.38 144.5-2.1316-2.524-4.2738-5.0374-6.4372-7.5295-1.7498-2.015-3.4785-3.9981-5.2495-5.9813 2.2377 2.577 4.4647 5.1859 6.66 7.7947-85.116-71.594-188.73-121.94-302.63-142.74m-767.49 644.12-4.9419 4.1465c0.1272 17.88 0.965 35.559 2.5028 53.068l4.4965 0.2757c-1.3787-17.276-2.0786-34.731-2.0786-52.368 0-1.6968 0.011-3.4254 0.021-5.1222"/><path fill="#989898" d="m2043.5 4244.9c12.991 135.53 67.395 258.97 150.33 357.6-24.423-20.542-47.341-42.844-68.53-66.684 1.7498 2.015 3.4997 4.0087 5.2707 6.0024 21.114 23.745 43.947 45.952 68.264 66.409-84.066-99.942-138.82-225.37-150.88-363.05l-4.4542-0.2757"/><path fill="#aaa" d="m2796.2 3570.5-4.5709 3.8496c113.91 20.807 217.52 71.149 302.63 142.74-2.1952-2.6088-4.4223-5.2176-6.6599-7.7946-1.6014-1.8453-3.2027-3.6588-4.8253-5.4934 2.1846 2.5133 4.3268 5.0267 6.4691 7.5719-82.73-69.558-182.9-119.05-293.05-140.88m-777.01 652.11-4.804 4.0299c0.3606 16.416 1.3151 32.663 2.8528 48.762l4.4541 0.2758c-1.5377-17.509-2.3755-35.187-2.5029-53.067"/><path fill="#999" d="m2039.4 4244.8c13.892 133.4 67.904 254.84 149.71 352.15-24.476-20.574-47.436-42.908-68.667-66.812 1.7075 1.9619 3.4148 3.9132 5.1434 5.8539 21.189 23.84 44.106 46.142 68.53 66.684-82.931-98.626-137.33-222.07-150.33-357.6l-4.3904-0.2758"/><path fill="#ababab" d="m2800.9 3566.9-4.4329 3.7118c110.14 21.825 210.32 71.319 293.05 140.88-2.1421-2.5452-4.2843-5.0585-6.469-7.572-1.7074-1.9725-3.4465-3.9557-5.1753-5.907 2.2271 2.5664 4.4329 5.1542 6.6282 7.7629-80.365-67.543-177.19-116.16-283.6-138.87m-786.24 659.85-4.6556 3.9132c0.5408 14.985 1.5801 29.864 3.1178 44.573l4.3905 0.2757c-1.5377-16.098-2.4922-32.345-2.8527-48.762"/><path fill="#9a9a9a" d="m2035.3 4244.7c14.762 131.24 68.402 250.7 149.06 346.69-24.434-20.531-47.351-42.812-68.551-66.652 1.6226 1.8665 3.2558 3.7224 4.8889 5.5676 21.231 23.904 44.191 46.238 68.667 66.812-81.807-97.312-135.82-218.75-149.71-352.15l-4.3586-0.2651"/><path fill="#acacac" d="m2805.5 3563.4-4.295 3.6057c106.41 22.716 203.23 71.329 283.6 138.87-2.1952-2.6089-4.4011-5.1966-6.6281-7.7629-1.8347-2.121-3.6905-4.2208-5.557-6.3206 2.4073 2.768 4.8041 5.5676 7.1583 8.3779-78.01-65.56-171.54-113.27-274.28-136.77m-795.19 667.37-4.5283 3.8072c0.6787 13.617 1.7816 27.106 3.2875 40.5l4.3587 0.2651c-1.5377-14.709-2.577-29.588-3.1179-44.573"/><path fill="#9a9a9a" d="m2031.2 4244.6c15.611 129.09 68.848 246.57 148.37 341.23-24.508-20.584-47.5-42.94-68.742-66.843 1.718 1.9831 3.4467 3.9556 5.1965 5.9176 21.199 23.84 44.117 46.121 68.551 66.652-80.662-95.986-134.3-215.45-149.06-346.69l-4.3162-0.2651"/><path fill="#adadad" d="m2810 3560-4.1571 3.4889c102.74 23.501 196.27 71.213 274.28 136.77-2.3543-2.8103-4.7511-5.6101-7.1584-8.378-1.5059-1.7392-3.0224-3.4678-4.5602-5.1964 2.2483 2.5982 4.486 5.2283 6.7024 7.8583-75.688-63.588-165.97-110.37-265.1-134.55m-803.88 674.67-4.4117 3.6906c0.7954 12.27 1.9301 24.466 3.383 36.545l4.3163 0.2651c-1.506-13.394-2.6089-26.884-3.2876-40.5"/><path fill="#9b9b9b" d="m2027.2 4244.6c16.416 126.93 69.251 242.44 147.62 335.76-24.498-20.574-47.468-42.897-68.72-66.801 1.6543 1.909 3.3087 3.786 4.9949 5.6842 21.242 23.904 44.234 46.259 68.742 66.843-79.527-94.66-132.76-212.13-148.37-341.23l-4.2632-0.2653"/><path fill="#aeaeae" d="m2814.2 3556.7-4.0511 3.3936c99.136 24.179 189.42 70.958 265.1 134.55-2.2166-2.63-4.4541-5.2601-6.7025-7.8583-1.7074-1.9725-3.4148-3.9132-5.1433-5.8646 2.2906 2.6513 4.5707 5.3237 6.8295 8.0068-73.386-61.626-160.46-107.46-256.04-132.22m-812.34 681.75-4.2738 3.5951c0.859 10.976 1.9937 21.868 3.3936 32.685l4.2632 0.2651c-1.4529-12.079-2.5876-24.275-3.383-36.545"/><path fill="#9c9c9c" d="m2023.3 4244.4c17.191 124.79 69.601 238.32 146.84 330.3-24.572-20.627-47.606-43.014-68.911-66.992 1.7181 1.9832 3.4573 3.9557 5.1965 5.9176 21.252 23.904 44.223 46.227 68.72 66.801-78.371-93.324-131.21-208.83-147.62-335.76l-4.2208-0.2651"/><path fill="#afafaf" d="m2818.4 3553.5-3.9133 3.2875c95.572 24.763 182.65 70.598 256.04 132.22-2.2588-2.6831-4.5389-5.3555-6.8296-8.0068-1.718-1.9725-3.4254-3.9238-5.154-5.8751 2.3437 2.7042 4.6556 5.4191 6.9569 8.1658-71.085-59.685-155.03-104.55-247.1-129.79m-820.53 688.64-4.1571 3.489c0.9014 9.7142 2.0043 19.344 3.3299 28.93l4.2208 0.2651c-1.3998-10.817-2.5346-21.708-3.3936-32.685"/><path fill="#9d9d9d" d="m2019.4 4244.4c17.933 122.63 69.919 234.18 146.01 324.83-24.572-20.616-47.606-43.003-68.911-66.97 1.6544 1.9195 3.33 3.8178 5.0056 5.7054 21.306 23.978 44.34 46.365 68.911 66.992-77.236-91.988-129.65-205.51-146.84-330.3l-4.1784-0.2545"/><path fill="#afafaf" d="m2822.5 3550.4-3.7859 3.1815c92.062 25.24 176.01 70.11 247.1 129.79-2.3013-2.7467-4.6132-5.4616-6.9569-8.1659-1.665-1.9195-3.3512-3.839-5.0374-5.7373 2.3543 2.7149 4.6768 5.4404 6.9781 8.1871-68.816-57.755-149.68-101.63-238.29-127.26m-828.47 695.31-4.0405 3.3936c0.9015 8.4734 1.9726 16.894 3.1921 25.282l4.1784 0.2545c-1.3256-9.5869-2.4285-19.216-3.33-28.93"/><path fill="#9e9e9e" d="m2015.5 4244.2c18.644 120.47 70.194 230.06 145.13 319.37-24.646-20.669-47.733-43.109-69.092-67.14 1.718 1.9832 3.4467 3.9451 5.186 5.8964 21.305 23.967 44.339 46.354 68.911 66.971-76.091-90.652-128.08-202.21-146.01-324.83l-4.1253-0.2651"/><path fill="#b0b0b0" d="m2826.4 3547.5-3.6799 3.0967c88.615 25.632 169.48 69.505 238.29 127.26-2.3013-2.7467-4.6238-5.4722-6.9781-8.1871-1.6226-1.8665-3.2558-3.7224-4.8995-5.5782 2.3118 2.6618 4.6025 5.3449 6.8614 8.0492-66.557-55.846-144.4-98.701-229.6-124.64m-836.19 701.8-3.9239 3.2875c0.8803 7.2857 1.8771 14.529 2.9907 21.73l4.1253 0.2651c-1.2196-8.3886-2.2907-16.809-3.1921-25.282"/><path fill="#9e9e9e" d="m2011.6 4244.2c19.333 118.3 70.428 225.93 144.2 313.89-24.667-20.68-47.776-43.141-69.155-67.204 1.6756 1.9407 3.383 3.8708 5.0798 5.7903 21.358 24.031 44.446 46.471 69.092 67.14-74.935-89.305-126.49-198.9-145.13-319.37l-4.083-0.2439"/><path fill="#b0b0b0" d="m2830.2 3544.6-3.5739 2.9907c85.201 25.94 163.04 68.795 229.6 124.64-2.2589-2.7043-4.5495-5.3874-6.8614-8.0492-1.7817-2.068-3.5845-4.1149-5.398-6.1615 2.4392 2.8103 4.8465 5.6418 7.2327 8.4946-64.319-53.948-139.16-95.774-221-121.92m-843.69 708.07-3.8178 3.2029c0.8272 6.1297 1.7286 12.206 2.7255 18.283l4.0829 0.2439c-1.1135-7.2008-2.1104-14.444-2.9906-21.73"/><path fill="#9f9f9f" d="m2007.9 4244c19.98 116.16 70.608 221.81 143.23 308.43-24.614-20.637-47.701-43.056-69.039-67.045 1.612 1.8559 3.2558 3.7224 4.8889 5.5571 21.38 24.063 44.488 46.524 69.155 67.204-73.768-87.958-124.86-195.59-144.2-313.89l-4.0405-0.2546"/><path fill="#b0b0b0" d="m2834 3541.7-3.4572 2.9058c81.839 26.141 156.68 67.967 221 121.92-2.3862-2.8528-4.7935-5.6843-7.2327-8.4946-1.6437-1.8877-3.2981-3.7754-4.9631-5.6525 2.4179 2.7891 4.8041 5.5995 7.1796 8.431-62.092-52.06-133.99-92.836-212.52-119.1m-850.97 714.18-3.7012 3.1073c0.7424 4.9844 1.5378 9.9687 2.3862 14.921l4.0405 0.2546c-0.9969-6.0767-1.8983-12.153-2.7255-18.283"/><path fill="#a1a1a1" d="m2004.2 4244c20.595 113.99 70.746 217.69 142.2 302.94-24.752-20.743-47.934-43.268-69.367-67.395 1.771 2.0361 3.5421 4.0511 5.3343 6.0767 21.337 23.988 44.424 46.407 69.039 67.045-72.623-86.611-123.25-192.27-143.23-308.43l-3.9769-0.2439"/><path fill="#b1b1b1" d="m2837.5 3539-3.3512 2.8103c78.53 26.269 150.43 67.045 212.52 119.1-2.3755-2.8316-4.7616-5.6419-7.1796-8.431-1.6331-1.8877-3.2769-3.7542-4.9419-5.6207 2.3967 2.7573 4.7617 5.5357 7.1054 8.3356-59.886-50.194-128.88-89.888-204.16-116.2m-858.02 720.1-3.5951 3.0119c0.6363 3.8919 1.3044 7.7947 2.0043 11.665l3.9769 0.2439c-0.8484-4.9525-1.6438-9.9368-2.3861-14.921"/><path fill="#a1a1a1" d="m2000.4 4244c21.178 111.82 70.852 213.57 141.13 297.45-24.699-20.69-47.85-43.162-69.251-67.236 1.6226 1.8665 3.2557 3.7224 4.8995 5.5782 21.433 24.126 44.615 46.651 69.367 67.395-71.456-85.254-121.61-188.95-142.2-302.94l-3.9451-0.2439"/><path fill="#b3b3b3" d="m2841 3536.4-3.2451 2.7254c75.274 26.311 144.27 66.006 204.16 116.2-2.3437-2.7998-4.7087-5.5783-7.1054-8.3357-1.7816-2.0678-3.5739-4.1041-5.3873-6.1402 2.5134 2.8845 5.0055 5.8116 7.4659 8.7492-57.691-48.327-123.82-86.919-195.88-113.2m-864.86 725.84-3.4891 2.9376c0.4985 2.8315 1.0075 5.6631 1.5484 8.484l3.945 0.2439c-0.6999-3.8708-1.368-7.7735-2.0043-11.666"/><path fill="#a2a2a2" d="m1996.9 4243.9c21.73 109.67 70.905 209.46 140.02 291.97-24.805-20.765-48.041-43.343-69.526-67.522 1.7498 2.0149 3.5103 4.0193 5.2813 6.013 21.401 24.073 44.552 46.545 69.251 67.236-70.279-83.875-119.95-185.63-141.13-297.45l-3.892-0.2439"/><path fill="#b4b4b4" d="m2844.5 3533.8-3.1391 2.63c72.061 26.279 138.19 64.871 195.88 113.2-2.4604-2.9376-4.9526-5.8646-7.4659-8.7491-1.7287-2.0044-3.4785-3.9875-5.2283-5.96 2.5876 2.98 5.1434 5.9812 7.678 9.0036-55.507-46.492-118.83-83.96-187.73-110.12m-871.49 731.41-3.3936 2.8422c0.3394 1.8028 0.6893 3.5951 1.0499 5.3979l3.892 0.2439c-0.5408-2.8209-1.0498-5.6524-1.5483-8.484"/><path fill="#a3a3a3" d="m1993.3 4243.8c22.249 107.51 70.905 205.36 138.85 286.48-24.784-20.733-47.998-43.279-69.452-67.416 1.633 1.8877 3.2769 3.7542 4.9313 5.6206 21.486 24.179 44.721 46.758 69.526 67.522-69.113-82.507-118.29-182.3-140.02-291.97l-3.839-0.2439"/><path fill="#b5b5b5" d="m2847.7 3531.3-3.0543 2.5663c68.901 26.163 132.22 63.63 187.73 110.12-2.5346-3.0224-5.0904-6.0236-7.678-9.0036-1.5483-1.7817-3.0967-3.5421-4.6556-5.3025 2.4604 2.8421 4.8995 5.7055 7.3175 8.59-53.343-44.658-113.89-80.99-179.66-106.97m-877.94 736.81-3.2875 2.7573c0.1697 0.806 0.3287 1.6013 0.4984 2.3967l3.839 0.2439c-0.3605-1.8028-0.7105-3.5951-1.0499-5.3979"/><path fill="#a4a4a4" d="m1990.4 4243.8 9.6188 41.073c25.452 89.199 69.378 170.62 127.34 239.89-24.816-20.775-48.072-43.343-69.558-67.533 1.6968 1.962 3.3936 3.9027 5.1222 5.8328 21.454 24.137 44.668 46.683 69.452 67.416-67.946-81.128-116.6-178.97-138.85-286.48l-3.1285-0.1909"/><path fill="#b7b7b7" d="m2850.9 3529-2.9376 2.4709c65.772 25.982 126.32 62.315 179.66 106.97-2.4179-2.8845-4.8571-5.748-7.3174-8.5901-1.7817-2.0573-3.5739-4.0935-5.3768-6.119 2.5876 2.9694 5.1434 5.9811 7.6674 8.9931-51.169-42.834-108.99-78.01-171.69-103.73m-884.16 742.04-2.63 2.2058 3.1285 0.191c-0.1697-0.7954-0.3288-1.5908-0.4985-2.3968"/><path fill="#a5a5a5" d="m1999.9 4283.9 8.3355 35.601c26.247 73.09 65.136 140.15 114 198.56-24.848-20.786-48.126-43.385-69.643-67.586 1.6862 1.9301 3.383 3.8708 5.0904 5.7797 21.486 24.19 44.742 46.758 69.558 67.533-57.967-69.261-101.89-150.69-127.34-239.89"/><path fill="#a6a6a6" d="m2008 4318.5 4.4117 18.824c25.77 63.588 61.244 122.19 104.59 174.01-24.869-20.807-48.189-43.428-69.717-67.649 1.6862 1.9406 3.3724 3.8707 5.0798 5.7902 21.518 24.201 44.796 46.8 69.643 67.586-48.868-58.412-87.756-125.47-114-198.56"/><path fill="#a6a6a6" d="m2012.5 4337 3.1285 13.405c24.911 56.228 57.5 108.3 96.452 154.88-24.943-20.86-48.306-43.534-69.898-67.819 1.7181 1.9726 3.4467 3.9345 5.1859 5.8964 21.528 24.222 44.848 46.842 69.717 67.649-43.343-51.816-78.816-110.42-104.59-174.01"/><path fill="#a7a7a7" d="m2015.6 4350.2 2.4498 10.435c23.819 50.066 53.81 96.622 88.986 138.71-24.932-20.849-48.306-43.512-69.887-67.798 1.665 1.9089 3.3194 3.8072 5.0055 5.7055 21.592 24.286 44.955 46.959 69.898 67.819-38.952-46.577-71.541-98.648-96.452-154.88"/><path fill="#a8a8a8" d="m2018.3 4360.5 1.983 8.4628c22.599 44.7 50.172 86.441 81.998 124.52-24.328-20.319-47.16-42.388-68.296-65.995l0.011 0.064c1.1241 1.2832 2.2694 2.577 3.4042 3.8602 21.581 24.286 44.955 46.948 69.887 67.798-35.177-42.091-65.168-88.647-88.986-138.71"/><path fill="#a9a9a9" d="m2020.3 4368.9 1.6437 7.0312c21.284 39.896 46.577 77.332 75.349 111.77-22.44-18.739-43.608-38.963-63.354-60.502l0.064 0.2333c21.136 23.607 43.968 45.676 68.296 65.995-31.826-38.083-59.399-79.824-81.998-124.52"/><path fill="#a9a9a9" d="m2022.1 4375.9 1.3892 5.9388c19.895 35.537 43.014 69.049 68.954 100.1-20.595-17.191-40.108-35.622-58.444-55.188l0.096 0.4136c19.747 21.539 40.914 41.762 63.354 60.502-28.771-34.434-54.064-71.87-75.348-111.77"/><path fill="#aaa" d="m2023.5 4381.8 1.1878 5.0585c18.442 31.55 39.461 61.414 62.75 89.315-18.771-15.664-36.651-32.377-53.555-50.013l0.1273 0.5514c18.336 19.566 37.849 37.998 58.444 55.188-25.94-31.051-49.059-64.563-68.954-100.1"/><path fill="#ababab" d="m2024.8 4387 1.0073 4.3375c16.957 27.849 35.94 54.34 56.737 79.251-16.989-14.179-33.247-29.196-48.719-44.997l0.1697 0.7106c16.904 17.636 34.784 34.35 53.555 50.013-23.288-27.902-44.308-57.766-62.75-89.315"/><path fill="#dfdfdf" d="m2550.4 8604.3 943.84-3520.9 445.41 3520.9h-1389.3"/><path fill="#f1f1f1" d="m3725 7265.6 640.97-382.42-912.03-1760.4 271.07 2142.8"/><path fill="#eee" d="m3891.7 8554.1 466.62-1760.4-640.96 382.37 174.35 1378"/><path fill="#e8e8e8" d="m4889 8554.1-551.46-1760.4-466.62 1760.4h1018.1"/><path fill="#e8e8e8" d="m3447.9 5151.3 1124.1 402.99-532.58 738.84-591.55-1141.8"/><path fill="#cecece" d="m4343.1 6882.6 212.1-1357.4-532.58 738.84 320.48 618.6"/><path fill="#f9f9f9" d="m4852.7 8554.1 806-625.7-1357.4-1134.7 551.4 1760.4"/><path fill="#eee" d="m4513.4 5525.2 1145.3 1145.3-1357.4 212.1 212.1-1357.4"/><path fill="#eee" d="m5658.7 7952.3v-1346.8l-1357.4 212.1 1357.4 1134.7"/><path fill="#f4f4f4" d="m6467.2 8521.7-848.4-625.7-805.98 625.7h1654.4"/><path fill="#e8e8e8" d="m6062 7739.7 1367 786.68h-1028.7l-338.35-786.68"/><path fill="#dfdfdf" d="m5605.5 6605.5 510.05 1185.9-510.05 160.98v-1346.8"/><path fill="#d8d8d8" d="m6444.2 8526.3-848.4-625.7 510.05-160.98 338.35 786.68"/><path fill="#d2d2d2" d="m2589.8 8560.2-477.2-1972.6 961.5 165.9-484.3 1806.7"/><path fill="#f4f4f4" d="m3520.5 5135-1421.1 1548.3 961.53 165.89 459.51-1714.2"/><path fill="#e8e8e8" d="m2621.5 8560.2h-1102.9l625.7-1972.5 477.22 1972.5"/><path fill="#e8e8e8" d="m3520.5 5171.2-1421-328.8 710.5 1103 710.5-774.2"/><path fill="#f3f3f3" d="m2190.5 6615.8-1771-106.05 1424.6 1198.4 346.49-1092.3"/><path fill="#d2d2d2" d="m1574.7 8563.2-1145.3-2078.6 1424.5 1198.4-279.2 880.2"/><path fill="#cecece" d="m2119.7 6697.4v-1877.1l710.54 1102.9-710.54 774.16"/><path fill="#ebebeb" d="m419.48 6591.4 1771-1771v1877.1l-1771-106.05"/><path fill="#f3f3f3" d="m1596.9 8535.3h-1643.8l1036.3-1102.4 607.43 1102.4"/><path fill="#e8e8e8" d="m468.87 6484.6-498.43 2078.6 1036.4-1102.4-537.93-976.2"/><path fill="#e2e2e2" d="m2088.3 4896.3 1813.5-1113.5-392.38 1442.3-1421.1-328.76"/><path fill="#e8e8e8" d="m4558.8 5592.6 466.62-1007.5-1590.8 604.48 1124.1 402.99"/><path fill="#eee" d="m3827 3782.8 1198.4 837.8-1590.8 604.4 392.4-1442.2"/><path fill="#d2d2d2" d="m484.22 6533-498.44-1696.8v3775.4l498.44-2078.6"/><path fill="#dfdfdf" d="m2173.8 4844.9-975.6-169.7-210.23 1355.6 1185.8-1185.9"/><path fill="#e8e8e8" d="m5011.8 4661.1 84.84-1654.4-1283.2 816.58 1198.4 837.8"/><path fill="#f3f3f3" d="m5580.7 6610.1 1378.6 212.1-868.6 973.75-510.1-1185.9"/><path fill="#f1f1f1" d="m4503.7 5531.2h1272.6l-127.3 1145.4-1145.3-1145.4"/><path fill="#e8e8e8" d="m6952.7 6872 233.31-986.26-1612 774.16 1378.6 212.1"/><path fill="#dbdbdb" d="m7429 8554.1-498.44-1760.4-868.55 973.75 1367 786.68"/><path fill="#f1f1f1" d="m7105.4 5885.8 1446.4 540.86-1679.7 445.41 233.31-986.26"/><path fill="#f1f1f1" d="m8551.8 8554.1-1679.7-1760.4 498.44 1760.4h1181.3"/><path fill="#e6e6e6" d="m5701.3 5514.3 1484.7 376.7-1612 785.6 127.3-1162.3"/><path fill="#e6e6e6" d="m8551.8 7269.6-1865.9-585.9 1865.9 1870.4v-1284.5"/><path fill="#f4f4f4" d="m7136.7 5877.4 273.3-2108.5-1803.7 1732 1530.4 376.5"/><g fill="#fbfbfb" transform="matrix(1.0965 0 0 1.0801 -600.01 -574.02)"><path d="m8503.9 7363.9v-940l-1583.9 420 1583.9 520"/><path d="m4980 4613.9 580-550-500-1010-80 1560"/><path d="m7390 3953.9h-825l-185 980 1010-980"/></g><path fill="#fff" d="m7098.7 5911.5 1446.4-456.02v996.87l-1446.4-540.86"/><path fill="#e8e8e8" d="m5763 5609.3-235-1810.8-757.2 663.9 992.2 1146.9"/><path fill="#fbfbfb" d="m6527 3975.1 1333-874.02-458.08 874.02h-874.91"/><path fill="#fbfbfb" d="m8545.2 5484.5-1327.3-478.3-119.2 934.4 1446.5-456.1"/><path fill="#e8e8e8" d="m7360.5 3907.6 1181.3 1622.6-1327.3-478.3 146-1144.3"/><path fill="#fbfbfb" d="m6595.4 3905.2-1065.8 116.66 190.89 1590.8 874.91-1707.4"/><path fill="#eee" d="m6393.8 4944.5-678.72 668.12 874.91-1707.4-196.19 1039.3"/><path fill="#d2d2d2" d="m1240 4721.5-1293.8-1177.1 1083.6 2532.6 210.2-1355.5"/><g fill="#e7e7e7" transform="matrix(1.0605 0 0 1.0605 -64.735 -306.97)"><path d="m2140 4873.9-145.6-621.95-774.4 461.95 920 160"/><path d="m470 6543.9 140-1511 411.8 959.2-551.8 551.8"/><path d="m0 3664.8v1279.1l610 89-610-1429v60.92"/></g><path fill="#cacaca" d="m3078.5 4302.3-1116-69.145 154.41 659.52 961.56-590.38"/><path fill="#f3f3f3" d="m-18.452 4895.5 498.43 1696.8 148.47-1602.4-646.9-94.4"/><path fill="#e8e8e8" d="m1197.3 4747.5 821.25-489.9-845.92-687.26 24.667 1177.2"/><path fill="#e2e2e2" d="m3076.7 4347.4 64.266-1059.7-1180.2 990.5 1116 69.166"/><path fill="#f3f3f3" d="m5096.6 3030.6-1084 177.42-199.16 639.16 1283.2-816.58"/><path fill="#fff" d="m3165.1 3289.7-2026.2 303.2 845.96 687.31 1180.2-990.51"/><path fill="#f3f3f3" d="m3022.4 4347.4 851.9-523.14-787.65-536.55-64.266 1059.7"/><path fill="#e6e6e6" d="m4006.9 3245.6 408.06-1090.7 972.22 864.02-1380.3 226.67"/><path fill="#f3f3f3" d="m1232.2 3570.3h-1269.1l1293.8 1177.2-24.667-1177.2"/><path fill="#e6e6e6" d="m-36.2 3633.7 759.85-1045.2 509.25 1045.2h-1269.1"/><path fill="#ebebeb" d="m4065.9 3203-986.82 102.65 787.65 536.55 199.16-639.2"/><g fill="#f4f4f4" transform="matrix(1.0956 0 0 1.0956 -275.85 -325.97)"><path d="m4340 2416.2 589.2-409 130.8 1046.7-720-637.7"/><path d="m3107.3 3318-1201.1-1124.2 347.03 1252 854.1-127.82"/><path d="m1196.7 3603.9-480.2-985.6 1536.7 827.5-1056.5 158.1"/></g><path fill="#d8d8d8" d="m2270.1 3567.1-381.4-1376.1-1307.6 466.6 1689 909.5"/><path fill="#f4f4f4" d="m-21.674 3647.8v-1540.4l759.85 495.15-759.85 1045.2"/><path fill="#cecece" d="m3070 3345.3 1307.3-956.36-320.48 853.68-986.82 102.65"/><path fill="#eee" d="m4993.5 2012.3-814.47-191.93 155.38 655.61 659.09-463.68"/><path fill="#fcfcfc" d="m3087.6 3343 98.945-877.42 592.69 371.46-691.64 505.95"/><path fill="#cecece" d="m4371.7 2433.7-1112.7-433.74 965.37-179.54 147.3 613.29"/><path fill="#eee" d="m3201.7 2487.2-1372.7-314.8 1273.7 1192.3 99-877.5"/><path fill="#e2e2e2" d="m3756.1 2866.1-497.06-884.14 1112.7 433.74-615.62 450.39"/><path fill="#fff" d="m3183.7 2494.6 95.625-512.7 497.07 884.16-592.69-371.46"/><path fill="#e2e2e2" d="m1864.3 2190.5 1468.4-197.9-95.625 512.7-1372.7-314.8"/><path fill="#dbdbdb" d="m738.17 2650.9-20.64-1141.9-739.2 646.7 759.84 495.2"/><path fill="#f4f4f4" d="m1942.8 2200.7-1282.4-691.7 20.7 1141.9 1261.7-450.2"/><path fill="#dfdfdf" d="m1940.7 2260.2 72.3-2326.6-1354.6 1634.9 1282.3 691.7"/><path fill="#d3d3d3" d="m3332.7 2024.1-1437.6-791.02-30.744 988.92 1468.4-197.9"/><path fill="#ebebeb" d="m4228.6 1851.9-468.39-669.65-497.07 849.17 965.46-179.52"/><path fill="#cecece" d="m4947.3 2034.1 138.67-943.87-910.83 764.34 772.16 179.52"/><path fill="#fff" d="m3741.9 1202.5 615.7-532.06-147.3 1201.8-468.4-669.7"/><path fill="#e6e6e6" d="m5086 1107.8-763.56-437.33-147.3 1201.8 910.86-764.41"/><path fill="#f4f4f4" d="m3783.8 1196.2-851.6-491.48 354.5 1340.7 497.1-849.2"/><path fill="#dfdfdf" d="m1894.1 1254.4 1083.2-549.66 354.5 1340.7-1437.7-791"/><path fill="#ebebeb" d="m3783.8 1242.9-38.1-1279.4-813.5 787.94 851.5 491.46"/><path fill="#d8d8d8" d="m4358.6 710.86-653.69-747.36 38.072 1279.4 615.62-532.03"/><path fill="#b7b7b7" d="m2987.4 749.78-293.1-787.93-790.1 1337.6 1083.2-549.62"/><path fill="#a9a9a9" d="m1954.2-38.154h748.39l-790.07 1337.6 41.678-1337.6"/><path fill="#cecece" d="m2961.1 765.46 130.76-787.93h-423.88l293.12 787.93"/><path fill="#e2e2e2" d="m3746.8-22.475h-682.75l-130.76 787.93 813.51-787.93"/><path fill="#f3f3f3" d="m658.39 1588.2 20.65-1144.5 1334-490.33-1354.6 1634.8"/><path fill="#cecece" d="m-21.085 2181.8v-1065.3l739.2 418.58-739.2 646.69"/><path fill="#cecece" d="m738.17 443.71-759.84-490.34 739.2 1634.8 20.64-1144.5"/><path fill="#b1b1b1" d="m-21.085 1169.7 739.2 418.5-739.2-1634.8v1216.3"/><path fill="#e8e8e8" d="m700.12 476.36 1334-490.34h-2093.9l759.85 490.34"/><path fill="#f3f3f3" d="m7814.4 3186.4 723.21 2364.9-1181.3-1622.6 458.08-742.35"/><path fill="#f3f3f3" d="m6527.9 3980.1-31.391-916.8 1364.4 174.45-1333 742.35"/><path fill="#d2d2d2" d="m8524.5 5551.4v-1938.8l-723.21-426.08 723.21 2364.9"/><path fill="#e8e8e8" d="m6595.4 3976.7-1065.8 116.66 1034.4-1033.4 31.37 916.75"/><path fill="#f3f3f3" d="m7801.4 3262.8 723.21-738.37v1164.4l-723.21-426.08"/><path fill="#f3f3f3" d="m5015.4 3023.3 1564.7 37.648-1034.4 1033.5-530.25-1071.1"/><path fill="#e8e8e8" d="m7811.5 3284.7 723.1-738.4-1077.2-340.8 354.1 1079.2"/><path fill="#dfdfdf" d="m6496.5 3110.2 1010.3-904.7 354.1 1079.2-1364.4-174.5"/><path fill="#cbcbcb" d="m5035.2 3085.3-145.1-1119.6 1052.7 1140-853.7-17.3"/><path fill="#cbcbcb" d="m6555.8 3110.2-316.45-730.26-397.59 713.14 714.07 17.201"/><path fill="#d3d3d3" d="m7525.9 2210.5-1326.8 174.45 316.47 730.35 1010.3-904.81"/><path fill="#d2d2d2" d="m4893.8 1988.4 1240.9-472.03-251.55 1602.5-989.34-1130.5"/><path fill="#e8e8e8" d="m6248.3 2405.8-146.03-889.44-251.55 1602.5 397.58-713.08"/><path fill="#f3f3f3" d="m7530.1 2251.7-1472.8-714.99 146.03 889.44 1326.8-174.45"/><path fill="#a6a6a6" d="m5032.5 1090.2 1102.2 471.92-1240.9 472.03 138.71-943.95"/><path fill="#d6d6d6" d="m4318.2 713.56 721.6-747.35 42 1184.7-763.6-437.34"/><path fill="#d8d8d8" d="m7457.4 2251.9 1077.3-888.5v1229.3l-1077.3-340.83"/><path fill="#d2d2d2" d="m6057.3 1566.3 1144.7-863.27 328.1 1578.3-1472.8-714.9"/><path fill="#bdbdbd" d="m8544 1392.7-1405.4-689.67 328.1 1578.3 1077.3-888.5"/><path fill="#909090" d="m6130.7 1585-52.7-802.45-1049.4 330.55 1102.1 471.9"/><path fill="#b1b1b1" d="m7159.2 761.13v-793.31l682.3 1128.2-682.3-334.87"/><path fill="#bcbcbc" d="m6015.4 784.29 1197.5-60.87-1144.7 863.28-52.8-802.41"/><path fill="#b1b1b1" d="m7801.4 1067.6 723.21-488.4v843.34l-723.21-354.94"/><path fill="#d8d8d8" d="m8524.5-32.18-723.16 1128.2 723.16-488.45v-639.71"/><path fill="#cbcbcb" d="m7159.2-32.18h616.15l66 1128.2-682.2-1128.2"/><path fill="#f1f1f1" d="m7212.9 768.94-1197.4 60.862 1197.4-854.17v793.31"/><path fill="#ebebeb" d="m8526.4-32.18h-789.22l66.1 1128.2 723.1-1128.2"/><path fill="#c7c7c7" d="m7212.9-24.365h-1059.5l-137.86 854.17 1197.4-854.17"/><path fill="#cbcbcb" d="m5031.3 1150.9 1049.4-330.52-1091.4-854.17 42 1184.7"/><path fill="#b1b1b1" d="m4338.1 726.04 721.56-747.36h-1375.3l653.69 747.36"/><path fill="#cecece" d="m6076.8 829.8 137.86-854.17h-1229.3l1091.5 854.17"/><path fill="#f3f3f3" d="m3034.7 6748.8 904.92 1806.7h-1389.3l484.31-1806.7"/><path fill="#bcbcbc" d="m1789.8 7680 823.71 880.22-477.22-1972.5-346.49 1092.3"/><path fill="#d2d2d2" d="m4503.7 5592.6 466.62-1007.5 805.98 1007.5h-1272.6"/></g></g></svg>
